<?xml version="1.0" encoding="utf-8" standalone="no"?>
<!DOCTYPE svg PUBLIC "-//W3C//DTD SVG 1.1//EN"
  "http://www.w3.org/Graphics/SVG/1.1/DTD/svg11.dtd">
<svg xmlns:xlink="http://www.w3.org/1999/xlink" width="974.267824pt" height="291.783764pt" viewBox="0 0 974.267824 291.783764" xmlns="http://www.w3.org/2000/svg" version="1.1">
 <metadata>
  <rdf:RDF xmlns:dc="http://purl.org/dc/elements/1.1/" xmlns:cc="http://creativecommons.org/ns#" xmlns:rdf="http://www.w3.org/1999/02/22-rdf-syntax-ns#">
   <cc:Work>
    <dc:type rdf:resource="http://purl.org/dc/dcmitype/StillImage"/>
    <dc:date>2025-07-30T17:34:15.076152</dc:date>
    <dc:format>image/svg+xml</dc:format>
    <dc:creator>
     <cc:Agent>
      <dc:title>Matplotlib v3.9.4, https://matplotlib.org/</dc:title>
     </cc:Agent>
    </dc:creator>
   </cc:Work>
  </rdf:RDF>
 </metadata>
 <defs>
  <style type="text/css">*{stroke-linejoin: round; stroke-linecap: butt}</style>
 </defs>
 <g id="figure_1">
  <g id="patch_1">
   <path d="M 0 291.783764 
L 974.267824 291.783764 
L 974.267824 0 
L 0 0 
z
" style="fill: #ffffff"/>
  </g>
  <g id="axes_1">
   <g id="patch_2">
    <path d="M 51.742813 223.267358 
L 302.29955 223.267358 
L 302.29955 43.267358 
L 51.742813 43.267358 
z
" style="fill: #ffffff"/>
   </g>
   <g id="patch_3">
    <path d="M 56.914694 223.267358 
L 60.62166 223.267358 
L 60.62166 216.08554 
L 56.914694 216.08554 
z
" clip-path="url(#p66632faf42)" style="fill: #e69f00"/>
   </g>
   <g id="patch_4">
    <path d="M 89.398281 223.267358 
L 93.105247 223.267358 
L 93.105247 216.08554 
L 89.398281 216.08554 
z
" clip-path="url(#p66632faf42)" style="fill: #e69f00"/>
   </g>
   <g id="patch_5">
    <path d="M 144.891076 223.267358 
L 148.598042 223.267358 
L 148.598042 216.08554 
L 144.891076 216.08554 
z
" clip-path="url(#p66632faf42)" style="fill: #e69f00"/>
   </g>
   <g id="patch_6">
    <path d="M 147.598042 223.267358 
L 151.305008 223.267358 
L 151.305008 216.08554 
L 147.598042 216.08554 
z
" clip-path="url(#p66632faf42)" style="fill: #e69f00"/>
   </g>
   <g id="patch_7">
    <path d="M 171.960733 223.267358 
L 175.667698 223.267358 
L 175.667698 216.08554 
L 171.960733 216.08554 
z
" clip-path="url(#p66632faf42)" style="fill: #e69f00"/>
   </g>
   <g id="patch_8">
    <path d="M 188.202526 223.267358 
L 191.909492 223.267358 
L 191.909492 216.08554 
L 188.202526 216.08554 
z
" clip-path="url(#p66632faf42)" style="fill: #e69f00"/>
   </g>
   <g id="patch_9">
    <path d="M 193.616458 223.267358 
L 197.323423 223.267358 
L 197.323423 216.08554 
L 193.616458 216.08554 
z
" clip-path="url(#p66632faf42)" style="fill: #e69f00"/>
   </g>
   <g id="patch_10">
    <path d="M 207.151286 223.267358 
L 210.858251 223.267358 
L 210.858251 216.08554 
L 207.151286 216.08554 
z
" clip-path="url(#p66632faf42)" style="fill: #e69f00"/>
   </g>
   <g id="patch_11">
    <path d="M 230.160493 223.267358 
L 233.867459 223.267358 
L 233.867459 216.08554 
L 230.160493 216.08554 
z
" clip-path="url(#p66632faf42)" style="fill: #e69f00"/>
   </g>
   <g id="patch_12">
    <path d="M 251.816218 223.267358 
L 255.523184 223.267358 
L 255.523184 216.08554 
L 251.816218 216.08554 
z
" clip-path="url(#p66632faf42)" style="fill: #e69f00"/>
   </g>
   <g id="patch_13">
    <path d="M 258.583632 223.267358 
L 262.290598 223.267358 
L 262.290598 216.08554 
L 258.583632 216.08554 
z
" clip-path="url(#p66632faf42)" style="fill: #e69f00"/>
   </g>
   <g id="patch_14">
    <path d="M 259.937115 223.267358 
L 263.644081 223.267358 
L 263.644081 216.08554 
L 259.937115 216.08554 
z
" clip-path="url(#p66632faf42)" style="fill: #e69f00"/>
   </g>
   <g id="patch_15">
    <path d="M 261.290598 223.267358 
L 264.997563 223.267358 
L 264.997563 216.08554 
L 261.290598 216.08554 
z
" clip-path="url(#p66632faf42)" style="fill: #e69f00"/>
   </g>
   <g id="patch_16">
    <path d="M 262.644081 223.267358 
L 266.351046 223.267358 
L 266.351046 216.08554 
L 262.644081 216.08554 
z
" clip-path="url(#p66632faf42)" style="fill: #e69f00"/>
   </g>
   <g id="matplotlib.axis_1">
    <g id="xtick_1">
     <g id="line2d_1">
      <defs>
       <path id="mb051d727ee" d="M 0 0 
L 0 5 
" style="stroke: #000000"/>
      </defs>
      <g>
       <use xlink:href="#mb051d727ee" x="57.237953" y="223.267358" style="stroke: #000000"/>
      </g>
     </g>
     <g id="text_1">
      <text style="font: 12px 'DejaVu Sans', 'Bitstream Vera Sans', 'Computer Modern Sans Serif', 'Lucida Grande', 'Verdana', 'Geneva', 'Lucid', 'Arial', 'Helvetica', 'Avant Garde', sans-serif" transform="translate(60.549203 254.672358) rotate(-90)">331</text>
     </g>
    </g>
    <g id="xtick_2">
     <g id="line2d_2">
      <g>
       <use xlink:href="#mb051d727ee" x="124.912093" y="223.267358" style="stroke: #000000"/>
      </g>
     </g>
     <g id="text_2">
      <text style="font: 12px 'DejaVu Sans', 'Bitstream Vera Sans', 'Computer Modern Sans Serif', 'Lucida Grande', 'Verdana', 'Geneva', 'Lucid', 'Arial', 'Helvetica', 'Avant Garde', sans-serif" transform="translate(128.223343 254.672358) rotate(-90)">384</text>
     </g>
    </g>
    <g id="xtick_3">
     <g id="line2d_3">
      <g>
       <use xlink:href="#mb051d727ee" x="192.586233" y="223.267358" style="stroke: #000000"/>
      </g>
     </g>
     <g id="text_3">
      <text style="font: 12px 'DejaVu Sans', 'Bitstream Vera Sans', 'Computer Modern Sans Serif', 'Lucida Grande', 'Verdana', 'Geneva', 'Lucid', 'Arial', 'Helvetica', 'Avant Garde', sans-serif" transform="translate(195.897483 254.672358) rotate(-90)">443</text>
     </g>
    </g>
    <g id="xtick_4">
     <g id="line2d_4">
      <g>
       <use xlink:href="#mb051d727ee" x="260.260374" y="223.267358" style="stroke: #000000"/>
      </g>
     </g>
     <g id="text_4">
      <text style="font: 12px 'DejaVu Sans', 'Bitstream Vera Sans', 'Computer Modern Sans Serif', 'Lucida Grande', 'Verdana', 'Geneva', 'Lucid', 'Arial', 'Helvetica', 'Avant Garde', sans-serif" transform="translate(263.571624 254.672358) rotate(-90)">500</text>
     </g>
    </g>
   </g>
   <g id="matplotlib.axis_2">
    <g id="ytick_1">
     <g id="line2d_5">
      <defs>
       <path id="m64ba5e0410" d="M 0 0 
L -5 0 
" style="stroke: #000000"/>
      </defs>
      <g>
       <use xlink:href="#m64ba5e0410" x="51.742813" y="215.08554" style="stroke: #000000"/>
      </g>
     </g>
     <g id="text_5">
      <text style="font: 12px 'DejaVu Sans', 'Bitstream Vera Sans', 'Computer Modern Sans Serif', 'Lucida Grande', 'Verdana', 'Geneva', 'Lucid', 'Arial', 'Helvetica', 'Avant Garde', sans-serif; text-anchor: end" x="43.242813" y="219.644602" transform="rotate(-0 43.242813 219.644602)">0</text>
     </g>
    </g>
    <g id="ytick_2">
     <g id="line2d_6">
      <g>
       <use xlink:href="#m64ba5e0410" x="51.742813" y="163.628982" style="stroke: #000000"/>
      </g>
     </g>
     <g id="text_6">
      <text style="font: 12px 'DejaVu Sans', 'Bitstream Vera Sans', 'Computer Modern Sans Serif', 'Lucida Grande', 'Verdana', 'Geneva', 'Lucid', 'Arial', 'Helvetica', 'Avant Garde', sans-serif; text-anchor: end" x="43.242813" y="168.188045" transform="rotate(-0 43.242813 168.188045)">4</text>
     </g>
    </g>
    <g id="ytick_3">
     <g id="line2d_7">
      <g>
       <use xlink:href="#m64ba5e0410" x="51.742813" y="112.172425" style="stroke: #000000"/>
      </g>
     </g>
     <g id="text_7">
      <text style="font: 12px 'DejaVu Sans', 'Bitstream Vera Sans', 'Computer Modern Sans Serif', 'Lucida Grande', 'Verdana', 'Geneva', 'Lucid', 'Arial', 'Helvetica', 'Avant Garde', sans-serif; text-anchor: end" x="43.242813" y="116.731487" transform="rotate(-0 43.242813 116.731487)">8</text>
     </g>
    </g>
    <g id="ytick_4">
     <g id="line2d_8">
      <g>
       <use xlink:href="#m64ba5e0410" x="51.742813" y="60.715867" style="stroke: #000000"/>
      </g>
     </g>
     <g id="text_8">
      <text style="font: 12px 'DejaVu Sans', 'Bitstream Vera Sans', 'Computer Modern Sans Serif', 'Lucida Grande', 'Verdana', 'Geneva', 'Lucid', 'Arial', 'Helvetica', 'Avant Garde', sans-serif; text-anchor: end" x="43.242813" y="65.274929" transform="rotate(-0 43.242813 65.274929)">12</text>
     </g>
    </g>
   </g>
   <g id="line2d_9">
    <path d="M 56.561211 211.954346 
L 57.914694 211.954346 
L 57.914694 213.959589 
L 59.268177 213.959589 
L 59.268177 212.512512 
L 60.62166 212.512512 
L 60.62166 211.340631 
L 61.975143 211.340631 
L 61.975143 214.185599 
L 63.328625 214.185599 
L 63.328625 198.903656 
L 64.682108 198.903656 
L 64.682108 205.130008 
L 66.035591 205.130008 
L 66.035591 212.336276 
L 67.389074 212.336276 
L 67.389074 211.952057 
L 68.742557 211.952057 
L 68.742557 208.583523 
L 70.096039 208.583523 
L 70.096039 211.198861 
L 71.449522 211.198861 
L 71.449522 208.647425 
L 72.803005 208.647425 
L 72.803005 211.616838 
L 74.156488 211.616838 
L 74.156488 200.736254 
L 75.509971 200.736254 
L 75.509971 215.018584 
L 76.863453 215.018584 
L 76.863453 203.305377 
L 78.216936 203.305377 
L 78.216936 214.415995 
L 79.570419 214.415995 
L 79.570419 205.266959 
L 80.923902 205.266959 
L 80.923902 213.85228 
L 82.277385 213.85228 
L 82.277385 213.317477 
L 83.630867 213.317477 
L 83.630867 208.240809 
L 84.98435 208.240809 
L 84.98435 213.361344 
L 86.337833 213.361344 
L 86.337833 214.437924 
L 87.691316 214.437924 
L 87.691316 215.031607 
L 89.044799 215.031607 
L 89.044799 213.088924 
L 90.398281 213.088924 
L 90.398281 213.699384 
L 93.105247 213.602031 
L 93.105247 202.266273 
L 94.45873 202.266273 
L 94.45873 205.198256 
L 95.812213 205.198256 
L 95.812213 205.798781 
L 97.165695 205.798781 
L 97.165695 213.744926 
L 98.519178 213.744926 
L 98.519178 213.041797 
L 99.872661 213.041797 
L 99.872661 212.435433 
L 101.226144 212.435433 
L 101.226144 206.564171 
L 102.579627 206.564171 
L 102.579627 202.131845 
L 103.93311 202.131845 
L 103.93311 214.639543 
L 105.286592 214.639543 
L 105.286592 214.972765 
L 106.640075 214.972765 
L 106.640075 213.405515 
L 107.993558 213.405515 
L 107.993558 206.09802 
L 109.347041 206.09802 
L 109.347041 209.531264 
L 110.700524 209.531264 
L 110.700524 207.003541 
L 112.054006 207.003541 
L 112.054006 206.856372 
L 113.407489 206.856372 
L 113.407489 212.718615 
L 114.760972 212.718615 
L 114.760972 214.602206 
L 116.114455 214.602206 
L 116.114455 207.376094 
L 117.467938 207.376094 
L 117.467938 210.813715 
L 118.82142 210.813715 
L 118.82142 214.965053 
L 120.174903 214.965053 
L 120.174903 209.441658 
L 122.881869 209.496342 
L 122.881869 209.847864 
L 124.235352 209.847864 
L 124.235352 214.177686 
L 125.588834 214.177686 
L 125.588834 214.556879 
L 126.942317 214.556879 
L 126.942317 208.565216 
L 128.2958 208.565216 
L 128.2958 197.878464 
L 129.649283 197.878464 
L 129.649283 207.862288 
L 131.002766 207.862288 
L 131.002766 213.276801 
L 133.709731 213.183424 
L 133.709731 212.964139 
L 135.063214 212.964139 
L 135.063214 212.355524 
L 136.416697 212.355524 
L 136.416697 212.843261 
L 137.77018 212.843261 
L 137.77018 210.242455 
L 139.123662 210.242455 
L 139.123662 213.329711 
L 140.477145 213.329711 
L 140.477145 207.615899 
L 141.830628 207.615899 
L 141.830628 212.297189 
L 143.184111 212.297189 
L 143.184111 207.299373 
L 144.537594 207.299373 
L 144.537594 208.35002 
L 145.891076 208.35002 
L 145.891076 209.674492 
L 147.244559 209.674492 
L 147.244559 212.678487 
L 148.598042 212.678487 
L 148.598042 211.07419 
L 149.951525 211.07419 
L 149.951525 212.994096 
L 151.305008 212.994096 
L 151.305008 207.319411 
L 152.658491 207.319411 
L 152.658491 210.971444 
L 154.011973 210.971444 
L 154.011973 214.675785 
L 155.365456 214.675785 
L 155.365456 214.460513 
L 156.718939 214.460513 
L 156.718939 208.776807 
L 158.072422 208.776807 
L 158.072422 211.475881 
L 159.425905 211.475881 
L 159.425905 213.196442 
L 160.779387 213.196442 
L 160.779387 209.002342 
L 162.13287 209.002342 
L 162.13287 212.623203 
L 163.486353 212.623203 
L 163.486353 215.06251 
L 164.839836 215.06251 
L 164.839836 214.629157 
L 166.193319 214.629157 
L 166.193319 210.239746 
L 167.546801 210.239746 
L 167.546801 204.965709 
L 168.900284 204.965709 
L 168.900284 208.425314 
L 170.253767 208.425314 
L 170.253767 214.721792 
L 171.60725 214.721792 
L 171.60725 212.360357 
L 172.960733 212.360357 
L 172.960733 209.988401 
L 174.314215 209.988401 
L 174.314215 206.00405 
L 175.667698 206.00405 
L 175.667698 214.890201 
L 177.021181 214.890201 
L 177.021181 211.406683 
L 178.374664 211.406683 
L 178.374664 215.069499 
L 179.728147 215.069499 
L 179.728147 213.856276 
L 181.081629 213.856276 
L 181.081629 213.316235 
L 182.435112 213.316235 
L 182.435112 211.171257 
L 183.788595 211.171257 
L 183.788595 208.373329 
L 185.142078 208.373329 
L 185.142078 199.260454 
L 186.495561 199.260454 
L 186.495561 214.368378 
L 187.849043 214.368378 
L 187.849043 210.459022 
L 189.202526 210.459022 
L 189.202526 208.901197 
L 190.556009 208.901197 
L 190.556009 207.864648 
L 191.909492 207.864648 
L 191.909492 213.239917 
L 193.262975 213.239917 
L 193.262975 212.628859 
L 194.616458 212.628859 
L 194.616458 214.036018 
L 195.96994 214.036018 
L 195.96994 213.687293 
L 197.323423 213.687293 
L 197.323423 214.573579 
L 200.030389 214.656363 
L 200.030389 214.928376 
L 201.383872 214.928376 
L 201.383872 209.571691 
L 202.737354 209.571691 
L 202.737354 208.808489 
L 204.090837 208.808489 
L 204.090837 209.421678 
L 205.44432 209.421678 
L 205.44432 210.05882 
L 206.797803 210.05882 
L 206.797803 208.66556 
L 208.151286 208.66556 
L 208.151286 214.075096 
L 209.504768 214.075096 
L 209.504768 214.445225 
L 210.858251 214.445225 
L 210.858251 211.391224 
L 212.211734 211.391224 
L 212.211734 193.679413 
L 213.565217 193.679413 
L 213.565217 214.424633 
L 214.9187 214.424633 
L 214.9187 206.802924 
L 216.272182 206.802924 
L 216.272182 213.853563 
L 217.625665 213.853563 
L 217.625665 194.810097 
L 218.979148 194.810097 
L 218.979148 202.018955 
L 220.332631 202.018955 
L 220.332631 214.433357 
L 221.686114 214.433357 
L 221.686114 208.820877 
L 223.039596 208.820877 
L 223.039596 211.946028 
L 224.393079 211.946028 
L 224.393079 210.199904 
L 225.746562 210.199904 
L 225.746562 209.556887 
L 227.100045 209.556887 
L 227.100045 214.675005 
L 228.453528 214.675005 
L 228.453528 213.814256 
L 229.80701 213.814256 
L 229.80701 214.531673 
L 231.160493 214.531673 
L 231.160493 214.340221 
L 232.513976 214.340221 
L 232.513976 214.665013 
L 233.867459 214.665013 
L 233.867459 214.282041 
L 235.220942 214.282041 
L 235.220942 213.987697 
L 236.574425 213.987697 
L 236.574425 211.63797 
L 237.927907 211.63797 
L 237.927907 214.286674 
L 239.28139 214.286674 
L 239.28139 214.610098 
L 240.634873 214.610098 
L 240.634873 213.975404 
L 241.988356 213.975404 
L 241.988356 214.269721 
L 243.341839 214.269721 
L 243.341839 212.965069 
L 244.695321 212.965069 
L 244.695321 214.00338 
L 246.048804 214.00338 
L 246.048804 214.211143 
L 247.402287 214.211143 
L 247.402287 212.469916 
L 248.75577 212.469916 
L 248.75577 215.083145 
L 250.109253 215.083145 
L 250.109253 211.372809 
L 251.462735 211.372809 
L 251.462735 211.207222 
L 252.816218 211.207222 
L 252.816218 210.860066 
L 255.523184 210.865172 
L 255.523184 214.815486 
L 258.230149 214.849607 
L 258.230149 213.773666 
L 259.583632 213.773666 
L 259.583632 215.012225 
L 262.290598 215.039313 
L 262.290598 214.35267 
L 263.644081 214.35267 
L 263.644081 51.449176 
L 264.997563 51.449176 
L 264.997563 211.460402 
L 266.351046 211.460402 
L 266.351046 209.110199 
L 267.704529 209.110199 
L 267.704529 213.139258 
L 269.058012 213.139258 
L 269.058012 214.382703 
L 270.411495 214.382703 
L 270.411495 214.620052 
L 271.764977 214.620052 
L 271.764977 213.727923 
L 273.11846 213.727923 
L 273.11846 205.696457 
L 274.471943 205.696457 
L 274.471943 211.615068 
L 275.825426 211.615068 
L 275.825426 211.4473 
L 277.178909 211.4473 
L 277.178909 214.562656 
L 279.885874 214.536449 
L 279.885874 213.91324 
L 281.239357 213.91324 
L 281.239357 214.782726 
L 282.59284 214.782726 
L 282.59284 211.414529 
L 283.946323 211.414529 
L 283.946323 211.006319 
L 285.299806 211.006319 
L 285.299806 213.040289 
L 286.653288 213.040289 
L 286.653288 214.031008 
L 288.006771 214.031008 
L 288.006771 211.331427 
L 289.360254 211.331427 
L 289.360254 214.795416 
L 290.713737 214.795416 
L 290.713737 214.65179 
L 292.06722 214.65179 
L 292.06722 213.548959 
L 293.420702 213.548959 
L 293.420702 214.891649 
L 296.127668 214.898159 
L 296.127668 215.030069 
L 297.481151 215.030069 
L 297.481151 215.030069 
" clip-path="url(#p66632faf42)" style="fill: none; stroke: #000000; stroke-linecap: square"/>
   </g>
   <g id="patch_17">
    <path d="M 51.742813 223.267358 
L 51.742813 43.267358 
" style="fill: none; stroke: #000000; stroke-width: 0.8; stroke-linejoin: miter; stroke-linecap: square"/>
   </g>
   <g id="patch_18">
    <path d="M 51.742813 223.267358 
L 302.29955 223.267358 
" style="fill: none; stroke: #000000; stroke-width: 0.8; stroke-linejoin: miter; stroke-linecap: square"/>
   </g>
   <g id="text_9">
    <text style="font: 17px 'DejaVu Sans', 'Bitstream Vera Sans', 'Computer Modern Sans Serif', 'Lucida Grande', 'Verdana', 'Geneva', 'Lucid', 'Arial', 'Helvetica', 'Avant Garde', sans-serif; text-anchor: middle" x="177.021181" y="37.267358" transform="rotate(-0 177.021181 37.267358)">JN.1_RBD vs SA55</text>
   </g>
  </g>
  <g id="axes_2">
   <g id="patch_19">
    <path d="M 369.199071 223.267358 
L 952.403773 223.267358 
L 952.403773 43.267358 
L 369.199071 43.267358 
z
" style="fill: #ffffff"/>
   </g>
   <g id="matplotlib.axis_3">
    <g id="xtick_5">
     <g id="line2d_10">
      <g>
       <use xlink:href="#mb051d727ee" x="385.930354" y="223.267358" style="stroke: #000000"/>
      </g>
     </g>
     <g id="text_10">
      <text style="font: 12px 'DejaVu Sans', 'Bitstream Vera Sans', 'Computer Modern Sans Serif', 'Lucida Grande', 'Verdana', 'Geneva', 'Lucid', 'Arial', 'Helvetica', 'Avant Garde', sans-serif" transform="translate(389.241604 262.881108) rotate(-90)">V332</text>
     </g>
    </g>
    <g id="xtick_6">
     <g id="line2d_11">
      <g>
       <use xlink:href="#mb051d727ee" x="433.734018" y="223.267358" style="stroke: #000000"/>
      </g>
     </g>
     <g id="text_11">
      <text style="font: 12px 'DejaVu Sans', 'Bitstream Vera Sans', 'Computer Modern Sans Serif', 'Lucida Grande', 'Verdana', 'Geneva', 'Lucid', 'Arial', 'Helvetica', 'Avant Garde', sans-serif" transform="translate(437.045268 263.010483) rotate(-90)">R357</text>
     </g>
    </g>
    <g id="xtick_7">
     <g id="line2d_12">
      <g>
       <use xlink:href="#mb051d727ee" x="481.537682" y="223.267358" style="stroke: #000000"/>
      </g>
     </g>
     <g id="text_12">
      <text style="font: 12px 'DejaVu Sans', 'Bitstream Vera Sans', 'Computer Modern Sans Serif', 'Lucida Grande', 'Verdana', 'Geneva', 'Lucid', 'Arial', 'Helvetica', 'Avant Garde', sans-serif" transform="translate(484.848932 262.541733) rotate(-90)">K403</text>
     </g>
    </g>
    <g id="xtick_8">
     <g id="line2d_13">
      <g>
       <use xlink:href="#mb051d727ee" x="529.341346" y="223.267358" style="stroke: #000000"/>
      </g>
     </g>
     <g id="text_13">
      <text style="font: 12px 'DejaVu Sans', 'Bitstream Vera Sans', 'Computer Modern Sans Serif', 'Lucida Grande', 'Verdana', 'Geneva', 'Lucid', 'Arial', 'Helvetica', 'Avant Garde', sans-serif" transform="translate(532.652596 263.649858) rotate(-90)">N405</text>
     </g>
    </g>
    <g id="xtick_9">
     <g id="line2d_14">
      <g>
       <use xlink:href="#mb051d727ee" x="577.14501" y="223.267358" style="stroke: #000000"/>
      </g>
     </g>
     <g id="text_14">
      <text style="font: 12px 'DejaVu Sans', 'Bitstream Vera Sans', 'Computer Modern Sans Serif', 'Lucida Grande', 'Verdana', 'Geneva', 'Lucid', 'Arial', 'Helvetica', 'Avant Garde', sans-serif" transform="translate(580.45626 263.912358) rotate(-90)">D427</text>
     </g>
    </g>
    <g id="xtick_10">
     <g id="line2d_15">
      <g>
       <use xlink:href="#mb051d727ee" x="624.948674" y="223.267358" style="stroke: #000000"/>
      </g>
     </g>
     <g id="text_15">
      <text style="font: 12px 'DejaVu Sans', 'Bitstream Vera Sans', 'Computer Modern Sans Serif', 'Lucida Grande', 'Verdana', 'Geneva', 'Lucid', 'Arial', 'Helvetica', 'Avant Garde', sans-serif" transform="translate(628.259924 262.541733) rotate(-90)">K440</text>
     </g>
    </g>
    <g id="xtick_11">
     <g id="line2d_16">
      <g>
       <use xlink:href="#mb051d727ee" x="672.752338" y="223.267358" style="stroke: #000000"/>
      </g>
     </g>
     <g id="text_16">
      <text style="font: 12px 'DejaVu Sans', 'Bitstream Vera Sans', 'Computer Modern Sans Serif', 'Lucida Grande', 'Verdana', 'Geneva', 'Lucid', 'Arial', 'Helvetica', 'Avant Garde', sans-serif" transform="translate(676.063588 263.696733) rotate(-90)">H445</text>
     </g>
    </g>
    <g id="xtick_12">
     <g id="line2d_17">
      <g>
       <use xlink:href="#mb051d727ee" x="720.556002" y="223.267358" style="stroke: #000000"/>
      </g>
     </g>
     <g id="text_17">
      <text style="font: 12px 'DejaVu Sans', 'Bitstream Vera Sans', 'Computer Modern Sans Serif', 'Lucida Grande', 'Verdana', 'Geneva', 'Lucid', 'Arial', 'Helvetica', 'Avant Garde', sans-serif" transform="translate(723.867252 261.574233) rotate(-90)">F456</text>
     </g>
    </g>
    <g id="xtick_13">
     <g id="line2d_18">
      <g>
       <use xlink:href="#mb051d727ee" x="768.359666" y="223.267358" style="stroke: #000000"/>
      </g>
     </g>
     <g id="text_18">
      <text style="font: 12px 'DejaVu Sans', 'Bitstream Vera Sans', 'Computer Modern Sans Serif', 'Lucida Grande', 'Verdana', 'Geneva', 'Lucid', 'Arial', 'Helvetica', 'Avant Garde', sans-serif" transform="translate(771.670916 262.881108) rotate(-90)">A475</text>
     </g>
    </g>
    <g id="xtick_14">
     <g id="line2d_19">
      <g>
       <use xlink:href="#mb051d727ee" x="816.16333" y="223.267358" style="stroke: #000000"/>
      </g>
     </g>
     <g id="text_19">
      <text style="font: 12px 'DejaVu Sans', 'Bitstream Vera Sans', 'Computer Modern Sans Serif', 'Lucida Grande', 'Verdana', 'Geneva', 'Lucid', 'Arial', 'Helvetica', 'Avant Garde', sans-serif" transform="translate(819.47458 264.118608) rotate(-90)">Q493</text>
     </g>
    </g>
    <g id="xtick_15">
     <g id="line2d_20">
      <g>
       <use xlink:href="#mb051d727ee" x="863.966994" y="223.267358" style="stroke: #000000"/>
      </g>
     </g>
     <g id="text_20">
      <text style="font: 12px 'DejaVu Sans', 'Bitstream Vera Sans', 'Computer Modern Sans Serif', 'Lucida Grande', 'Verdana', 'Geneva', 'Lucid', 'Arial', 'Helvetica', 'Avant Garde', sans-serif" transform="translate(867.278244 262.001733) rotate(-90)">T500</text>
     </g>
    </g>
    <g id="xtick_16">
     <g id="line2d_21">
      <g>
       <use xlink:href="#mb051d727ee" x="887.868826" y="223.267358" style="stroke: #000000"/>
      </g>
     </g>
     <g id="text_21">
      <text style="font: 12px 'DejaVu Sans', 'Bitstream Vera Sans', 'Computer Modern Sans Serif', 'Lucida Grande', 'Verdana', 'Geneva', 'Lucid', 'Arial', 'Helvetica', 'Avant Garde', sans-serif" transform="translate(891.180076 262.001733) rotate(-90)">Y501</text>
     </g>
    </g>
    <g id="xtick_17">
     <g id="line2d_22">
      <g>
       <use xlink:href="#mb051d727ee" x="911.770658" y="223.267358" style="stroke: #000000"/>
      </g>
     </g>
     <g id="text_22">
      <text style="font: 12px 'DejaVu Sans', 'Bitstream Vera Sans', 'Computer Modern Sans Serif', 'Lucida Grande', 'Verdana', 'Geneva', 'Lucid', 'Arial', 'Helvetica', 'Avant Garde', sans-serif" transform="translate(915.081908 262.881108) rotate(-90)">V503</text>
     </g>
    </g>
    <g id="xtick_18">
     <g id="line2d_23">
      <g>
       <use xlink:href="#mb051d727ee" x="935.67249" y="223.267358" style="stroke: #000000"/>
      </g>
     </g>
     <g id="text_23">
      <text style="font: 12px 'DejaVu Sans', 'Bitstream Vera Sans', 'Computer Modern Sans Serif', 'Lucida Grande', 'Verdana', 'Geneva', 'Lucid', 'Arial', 'Helvetica', 'Avant Garde', sans-serif" transform="translate(938.98374 263.970483) rotate(-90)">G504</text>
     </g>
    </g>
   </g>
   <g id="matplotlib.axis_4">
    <g id="ytick_5">
     <g id="line2d_24">
      <g>
       <use xlink:href="#m64ba5e0410" x="369.199071" y="215.08554" style="stroke: #000000"/>
      </g>
     </g>
     <g id="text_24">
      <text style="font: 12px 'DejaVu Sans', 'Bitstream Vera Sans', 'Computer Modern Sans Serif', 'Lucida Grande', 'Verdana', 'Geneva', 'Lucid', 'Arial', 'Helvetica', 'Avant Garde', sans-serif; text-anchor: end" x="360.699071" y="219.644602" transform="rotate(-0 360.699071 219.644602)">0</text>
     </g>
    </g>
    <g id="ytick_6">
     <g id="line2d_25">
      <g>
       <use xlink:href="#m64ba5e0410" x="369.199071" y="163.628982" style="stroke: #000000"/>
      </g>
     </g>
     <g id="text_25">
      <text style="font: 12px 'DejaVu Sans', 'Bitstream Vera Sans', 'Computer Modern Sans Serif', 'Lucida Grande', 'Verdana', 'Geneva', 'Lucid', 'Arial', 'Helvetica', 'Avant Garde', sans-serif; text-anchor: end" x="360.699071" y="168.188045" transform="rotate(-0 360.699071 168.188045)">4</text>
     </g>
    </g>
    <g id="ytick_7">
     <g id="line2d_26">
      <g>
       <use xlink:href="#m64ba5e0410" x="369.199071" y="112.172425" style="stroke: #000000"/>
      </g>
     </g>
     <g id="text_26">
      <text style="font: 12px 'DejaVu Sans', 'Bitstream Vera Sans', 'Computer Modern Sans Serif', 'Lucida Grande', 'Verdana', 'Geneva', 'Lucid', 'Arial', 'Helvetica', 'Avant Garde', sans-serif; text-anchor: end" x="360.699071" y="116.731487" transform="rotate(-0 360.699071 116.731487)">8</text>
     </g>
    </g>
    <g id="ytick_8">
     <g id="line2d_27">
      <g>
       <use xlink:href="#m64ba5e0410" x="369.199071" y="60.715867" style="stroke: #000000"/>
      </g>
     </g>
     <g id="text_27">
      <text style="font: 12px 'DejaVu Sans', 'Bitstream Vera Sans', 'Computer Modern Sans Serif', 'Lucida Grande', 'Verdana', 'Geneva', 'Lucid', 'Arial', 'Helvetica', 'Avant Garde', sans-serif; text-anchor: end" x="360.699071" y="65.274929" transform="rotate(-0 360.699071 65.274929)">12</text>
     </g>
    </g>
   </g>
   <g id="line2d_28">
    <path d="M 409.832186 223.267358 
L 409.832186 43.267358 
" clip-path="url(#pd5d97e0026)" style="fill: none; stroke-dasharray: 2,5; stroke-dashoffset: 0; stroke: #000000"/>
   </g>
   <g id="line2d_29">
    <path d="M 457.63585 223.267358 
L 457.63585 43.267358 
" clip-path="url(#pd5d97e0026)" style="fill: none; stroke-dasharray: 2,5; stroke-dashoffset: 0; stroke: #000000"/>
   </g>
   <g id="line2d_30">
    <path d="M 505.439514 223.267358 
L 505.439514 43.267358 
" clip-path="url(#pd5d97e0026)" style="fill: none; stroke-dasharray: 2,5; stroke-dashoffset: 0; stroke: #000000"/>
   </g>
   <g id="line2d_31">
    <path d="M 553.243178 223.267358 
L 553.243178 43.267358 
" clip-path="url(#pd5d97e0026)" style="fill: none; stroke-dasharray: 2,5; stroke-dashoffset: 0; stroke: #000000"/>
   </g>
   <g id="line2d_32">
    <path d="M 601.046842 223.267358 
L 601.046842 43.267358 
" clip-path="url(#pd5d97e0026)" style="fill: none; stroke-dasharray: 2,5; stroke-dashoffset: 0; stroke: #000000"/>
   </g>
   <g id="line2d_33">
    <path d="M 648.850506 223.267358 
L 648.850506 43.267358 
" clip-path="url(#pd5d97e0026)" style="fill: none; stroke-dasharray: 2,5; stroke-dashoffset: 0; stroke: #000000"/>
   </g>
   <g id="line2d_34">
    <path d="M 696.65417 223.267358 
L 696.65417 43.267358 
" clip-path="url(#pd5d97e0026)" style="fill: none; stroke-dasharray: 2,5; stroke-dashoffset: 0; stroke: #000000"/>
   </g>
   <g id="line2d_35">
    <path d="M 744.457834 223.267358 
L 744.457834 43.267358 
" clip-path="url(#pd5d97e0026)" style="fill: none; stroke-dasharray: 2,5; stroke-dashoffset: 0; stroke: #000000"/>
   </g>
   <g id="line2d_36">
    <path d="M 792.261498 223.267358 
L 792.261498 43.267358 
" clip-path="url(#pd5d97e0026)" style="fill: none; stroke-dasharray: 2,5; stroke-dashoffset: 0; stroke: #000000"/>
   </g>
   <g id="line2d_37">
    <path d="M 840.065162 223.267358 
L 840.065162 43.267358 
" clip-path="url(#pd5d97e0026)" style="fill: none; stroke-dasharray: 2,5; stroke-dashoffset: 0; stroke: #000000"/>
   </g>
   <g id="patch_20">
    <path d="M 369.199071 223.267358 
L 369.199071 43.267358 
" style="fill: none; stroke: #000000; stroke-width: 0.8; stroke-linejoin: miter; stroke-linecap: square"/>
   </g>
   <g id="patch_21">
    <path d="M 369.199071 223.267358 
L 952.403773 223.267358 
" style="fill: none; stroke: #000000; stroke-width: 0.8; stroke-linejoin: miter; stroke-linecap: square"/>
   </g>
   <g id="text_28">
    <g id="patch_22">
     <path d="M 373.979437 229.972101 
L 417.325687 229.972101 
L 417.325687 160.289601 
L 373.979437 160.289601 
L 373.979437 229.972101 
z
" style="fill: none"/>
    </g>
    <path d="M 374.140414 214.926321 
L 380.540851 214.926321 
L 386.374649 214.955204 
L 392.227765 214.926321 
L 398.628202 214.926321 
L 389.355939 214.969882 
L 389.355939 214.998217 
L 383.419116 214.998217 
L 383.419116 214.969882 
L 374.140414 214.926321 
z
" style="fill: #84380b"/>
   </g>
   <g id="text_29">
    <g id="patch_23">
     <path d="M 373.979437 229.801817 
L 417.325687 229.801817 
L 417.325687 160.119317 
L 373.979437 160.119317 
L 373.979437 229.801817 
z
" style="fill: none"/>
    </g>
    <path d="M 384.243317 214.792999 
Q 379.755284 214.788661 378.164834 214.783898 
Q 376.574383 214.779135 376.574383 214.771078 
Q 376.574383 214.760737 379.188646 214.754833 
Q 381.809348 214.748912 386.374649 214.748912 
Q 388.44803 214.748912 390.521411 214.750119 
Q 392.594792 214.75131 394.6231 214.753642 
L 394.6231 214.768322 
Q 392.710695 214.764913 390.74034 214.763135 
Q 388.769984 214.761341 386.838263 214.761341 
Q 384.687613 214.761341 383.535019 214.763543 
Q 382.388864 214.765728 382.388864 214.769806 
Q 382.388864 214.77297 383.225944 214.775042 
Q 384.063023 214.777097 386.71592 214.779592 
L 389.272231 214.782039 
Q 392.897428 214.785399 394.603782 214.790961 
Q 396.316575 214.796522 396.316575 214.804971 
Q 396.316575 214.816503 393.625044 214.822179 
Q 390.939951 214.827855 385.511814 214.827855 
Q 383.277456 214.827855 381.03022 214.826517 
Q 378.789424 214.825164 376.696726 214.822505 
L 376.696726 214.806961 
Q 379.072743 214.811251 381.294222 214.813338 
Q 383.515702 214.815426 385.692108 214.815426 
Q 387.881392 214.815426 389.085498 214.812914 
Q 390.296044 214.810386 390.296044 214.805836 
Q 390.296044 214.802427 389.49116 214.79985 
Q 388.686276 214.797273 387.160216 214.795805 
L 384.243317 214.792999 
z
" style="fill: #ff7f00"/>
   </g>
   <g id="text_30">
    <g id="patch_24">
     <path d="M 373.979437 229.602826 
L 417.325687 229.602826 
L 417.325687 159.920326 
L 373.979437 159.920326 
L 373.979437 229.602826 
z
" style="fill: none"/>
    </g>
    <path d="M 383.174431 214.54832 
L 383.174431 214.576692 
L 385.6084 214.576692 
Q 388.525299 214.576692 389.703649 214.573526 
Q 390.881999 214.570341 390.881999 214.562496 
Q 390.881999 214.554651 389.703649 214.551486 
Q 388.525299 214.54832 385.6084 214.54832 
L 383.174431 214.54832 
z
M 377.237607 214.532252 
L 385.389472 214.532252 
Q 391.609614 214.532252 394.333341 214.53938 
Q 397.057068 214.546508 397.057068 214.562496 
Q 397.057068 214.578484 394.333341 214.585612 
Q 391.609614 214.59274 385.389472 214.59274 
L 383.174431 214.59274 
L 383.174431 214.628897 
L 377.237607 214.628897 
L 377.237607 214.532252 
z
" style="fill: #12ab0d"/>
   </g>
   <g id="text_31">
    <g id="patch_25">
     <path d="M 373.979437 229.195377 
L 417.325687 229.195377 
L 417.325687 159.512877 
L 373.979437 159.512877 
L 373.979437 229.195377 
z
" style="fill: none"/>
    </g>
    <path d="M 391.525906 214.17261 
L 391.525906 214.126101 
L 387.462852 214.126101 
L 387.462852 214.085602 
L 396.715798 214.085602 
L 396.715798 214.197275 
Q 395.009444 214.20919 392.942502 214.215356 
Q 390.881999 214.22147 388.525299 214.22147 
Q 382.691501 214.22147 379.5106 214.188548 
Q 376.336138 214.155627 376.336138 214.095061 
Q 376.336138 214.033502 379.542795 214.000999 
Q 382.755891 213.968495 388.808618 213.968495 
Q 390.617997 213.968495 392.369425 213.972676 
Q 394.120852 213.976856 395.653351 213.984695 
L 395.653351 214.038049 
Q 394.404171 214.024985 392.781525 214.0184 
Q 391.165318 214.011764 389.233597 214.011764 
Q 385.853085 214.011764 384.178926 214.032457 
Q 382.511207 214.053099 382.511207 214.095061 
Q 382.511207 214.135717 384.120975 214.156985 
Q 385.730742 214.178202 388.808618 214.178202 
Q 389.735845 214.178202 390.418386 214.176843 
Q 391.100928 214.175432 391.525906 214.17261 
z
" style="fill: #f76ab4"/>
   </g>
   <g id="text_32">
    <g id="patch_26">
     <path d="M 421.783102 230.05014 
L 465.129352 230.05014 
L 465.129352 160.36764 
L 421.783102 160.36764 
L 421.783102 230.05014 
z
" style="fill: none"/>
    </g>
    <path d="M 421.944078 215.06883 
L 428.344515 215.06883 
L 434.178313 215.071862 
L 440.031429 215.06883 
L 446.431866 215.06883 
L 437.159603 215.073402 
L 437.159603 215.076376 
L 431.22278 215.076376 
L 431.22278 215.073402 
L 421.944078 215.06883 
z
" style="fill: #84380b"/>
   </g>
   <g id="text_33">
    <g id="patch_27">
     <path d="M 421.783102 229.986857 
L 465.129352 229.986857 
L 465.129352 160.304357 
L 421.783102 160.304357 
L 421.783102 229.986857 
z
" style="fill: none"/>
    </g>
    <path d="M 422.48496 214.967267 
L 427.378654 214.967267 
L 429.406962 215.000853 
L 431.866687 214.979144 
L 436.515696 214.979144 
L 439.348888 215.000853 
L 440.958655 214.967267 
L 445.890984 214.967267 
L 442.632814 215.013022 
L 437.397849 215.013022 
L 434.178313 214.989014 
L 431.158389 215.013022 
L 425.987815 215.013022 
L 422.48496 214.967267 
z
" style="fill: #84380b"/>
   </g>
   <g id="text_34">
    <g id="patch_28">
     <path d="M 421.783102 229.835248 
L 465.129352 229.835248 
L 465.129352 160.152748 
L 421.783102 160.152748 
L 421.783102 229.835248 
z
" style="fill: none"/>
    </g>
    <path d="M 430.978095 214.789603 
L 430.978095 214.814862 
L 433.412064 214.814862 
Q 436.328963 214.814862 437.507313 214.812043 
Q 438.685663 214.809207 438.685663 214.802223 
Q 438.685663 214.795239 437.507313 214.792421 
Q 436.328963 214.789603 433.412064 214.789603 
L 430.978095 214.789603 
z
M 425.041272 214.775298 
L 433.193136 214.775298 
Q 439.413278 214.775298 442.137005 214.781644 
Q 444.860732 214.78799 444.860732 214.802223 
Q 444.860732 214.816457 442.137005 214.822803 
Q 439.413278 214.829149 433.193136 214.829149 
L 430.978095 214.829149 
L 430.978095 214.861338 
L 425.041272 214.861338 
L 425.041272 214.775298 
z
" style="fill: #12ab0d"/>
   </g>
   <g id="text_35">
    <g id="patch_29">
     <path d="M 421.783102 229.634818 
L 465.129352 229.634818 
L 465.129352 159.952318 
L 421.783102 159.952318 
L 421.783102 229.634818 
z
" style="fill: none"/>
    </g>
    <path d="M 432.046981 214.620326 
Q 427.558948 214.615286 425.968498 214.609753 
Q 424.378047 214.604219 424.378047 214.594858 
Q 424.378047 214.582844 426.99231 214.575985 
Q 429.613012 214.569106 434.178313 214.569106 
Q 436.251694 214.569106 438.325075 214.570508 
Q 440.398456 214.571892 442.426764 214.574601 
L 442.426764 214.591656 
Q 440.514359 214.587695 438.544004 214.58563 
Q 436.573648 214.583545 434.641927 214.583545 
Q 432.491277 214.583545 431.338683 214.586104 
Q 430.192528 214.588643 430.192528 214.59338 
Q 430.192528 214.597056 431.029608 214.599463 
Q 431.866687 214.601851 434.519584 214.60475 
L 437.075895 214.607592 
Q 440.701093 214.611496 442.407446 214.617958 
Q 444.120239 214.624419 444.120239 214.634235 
Q 444.120239 214.647633 441.428708 214.654227 
Q 438.743615 214.660821 433.315478 214.660821 
Q 431.08112 214.660821 428.833884 214.659268 
Q 426.593088 214.657695 424.50039 214.654606 
L 424.50039 214.636547 
Q 426.876407 214.641531 429.097886 214.643956 
Q 431.319366 214.646382 433.495772 214.646382 
Q 435.685056 214.646382 436.889162 214.643464 
Q 438.099708 214.640527 438.099708 214.63524 
Q 438.099708 214.631279 437.294824 214.628285 
Q 436.48994 214.625291 434.96388 214.623586 
L 432.046981 214.620326 
z
" style="fill: #ff7f00"/>
   </g>
   <g id="text_36">
    <g id="patch_30">
     <path d="M 421.783102 229.350708 
L 465.129352 229.350708 
L 465.129352 159.668208 
L 421.783102 159.668208 
L 421.783102 229.350708 
z
" style="fill: none"/>
    </g>
    <path d="M 430.475848 214.248565 
L 430.475848 214.348851 
L 432.085615 214.348851 
Q 435.58847 214.348851 437.075895 214.337416 
Q 438.563321 214.325948 438.563321 214.298548 
Q 438.563321 214.27134 437.075895 214.259969 
Q 435.58847 214.248565 432.085615 214.248565 
L 430.475848 214.248565 
z
M 424.539024 214.220748 
L 430.900826 214.220748 
Q 438.260685 214.220748 441.499537 214.238993 
Q 444.744829 214.257206 444.744829 214.298548 
Q 444.744829 214.340018 441.499537 214.35836 
Q 438.260685 214.376669 430.900826 214.376669 
L 424.539024 214.376669 
L 424.539024 214.220748 
z
" style="fill: #e41a1c"/>
   </g>
   <g id="text_37">
    <g id="patch_31">
     <path d="M 421.783102 228.910724 
L 465.129352 228.910724 
L 465.129352 159.228224 
L 421.783102 159.228224 
L 421.783102 228.910724 
z
" style="fill: none"/>
    </g>
    <path d="M 434.178313 213.747876 
L 431.383757 213.842354 
L 436.998627 213.842354 
L 434.178313 213.747876 
z
M 430.559555 213.706133 
L 437.822828 213.706133 
L 445.929618 213.936974 
L 439.992795 213.936974 
L 438.144781 213.879832 
L 430.192528 213.879832 
L 428.383149 213.936974 
L 422.446326 213.936974 
L 430.559555 213.706133 
z
" style="fill: #f76ab4"/>
   </g>
   <g id="text_38">
    <g id="patch_32">
     <path d="M 469.586766 230.022375 
L 512.933016 230.022375 
L 512.933016 160.339875 
L 469.586766 160.339875 
L 469.586766 230.022375 
z
" style="fill: none"/>
    </g>
    <path d="M 485.826103 215.034201 
Q 486.708256 215.034376 487.365041 215.035047 
Q 488.021826 215.035712 488.961931 215.037612 
L 494.396507 215.048568 
L 487.880167 215.048568 
L 484.25497 215.040886 
Q 484.093993 215.040547 483.83643 215.039983 
Q 482.245979 215.036534 480.088891 215.036534 
L 478.202243 215.036534 
L 478.202243 215.048568 
L 472.265419 215.048568 
L 472.265419 215.018128 
L 480.835823 215.018128 
Q 486.630987 215.018128 489.155103 215.02021 
Q 491.679219 215.022286 491.679219 215.026989 
Q 491.679219 215.030125 490.172476 215.031981 
Q 488.665733 215.033831 485.826103 215.034201 
z
M 478.202243 215.023189 
L 478.202243 215.031479 
L 480.9968 215.031479 
Q 483.430769 215.031479 484.486776 215.03052 
Q 485.542784 215.029554 485.542784 215.027321 
Q 485.542784 215.025108 484.493215 215.024148 
Q 483.450086 215.023189 480.9968 215.023189 
L 478.202243 215.023189 
z
" style="fill: #3c58e5"/>
   </g>
   <g id="text_39">
    <g id="patch_33">
     <path d="M 469.586766 229.463736 
L 512.933016 229.463736 
L 512.933016 159.781236 
L 469.586766 159.781236 
L 469.586766 229.463736 
z
" style="fill: none"/>
    </g>
    <path d="M 491.679219 214.48918 
L 472.967278 214.48918 
L 472.967278 214.054459 
L 491.679219 214.054459 
L 491.679219 214.130316 
L 478.904102 214.130316 
L 478.904102 214.223816 
L 490.475112 214.223816 
L 490.475112 214.299673 
L 478.904102 214.299673 
L 478.904102 214.413324 
L 491.679219 214.413324 
L 491.679219 214.48918 
z
" style="fill: #e41a1c"/>
   </g>
   <g id="text_40">
    <g id="patch_34">
     <path d="M 469.586766 228.328803 
L 512.933016 228.328803 
L 512.933016 158.646303 
L 469.586766 158.646303 
L 469.586766 228.328803 
z
" style="fill: none"/>
    </g>
    <path d="M 484.963267 213.354005 
L 479.026444 213.354005 
L 479.026444 212.886096 
L 471.396145 212.886096 
L 471.396145 212.788459 
L 492.587128 212.788459 
L 492.587128 212.886096 
L 484.963267 212.886096 
L 484.963267 213.354005 
z
" style="fill: #ff7f00"/>
   </g>
   <g id="text_41">
    <g id="patch_35">
     <path d="M 469.586766 226.072551 
L 512.933016 226.072551 
L 512.933016 156.390051 
L 469.586766 156.390051 
L 469.586766 226.072551 
z
" style="fill: none"/>
    </g>
    <path d="M 478.279512 209.963485 
L 478.279512 210.850264 
L 479.889279 210.850264 
Q 483.392134 210.850264 484.87956 210.749145 
Q 486.366985 210.647742 486.366985 210.405455 
Q 486.366985 210.164871 484.87956 210.06432 
Q 483.392134 209.963485 479.889279 209.963485 
L 478.279512 209.963485 
z
M 472.342688 209.717505 
L 478.70449 209.717505 
Q 486.064349 209.717505 489.303201 209.878841 
Q 492.548493 210.039893 492.548493 210.405455 
Q 492.548493 210.772153 489.303201 210.934341 
Q 486.064349 211.096244 478.70449 211.096244 
L 472.342688 211.096244 
L 472.342688 209.717505 
z
" style="fill: #e41a1c"/>
   </g>
   <g id="text_42">
    <g id="patch_36">
     <path d="M 517.39043 230.0273 
L 560.73668 230.0273 
L 560.73668 160.3448 
L 517.39043 160.3448 
L 517.39043 230.0273 
z
" style="fill: none"/>
    </g>
    <path d="M 518.092288 215.027122 
L 522.985982 215.027122 
L 525.01429 215.046485 
L 527.474015 215.033969 
L 532.123024 215.033969 
L 534.956216 215.046485 
L 536.565983 215.027122 
L 541.498312 215.027122 
L 538.240142 215.053501 
L 533.005177 215.053501 
L 529.785642 215.039659 
L 526.765717 215.053501 
L 521.595143 215.053501 
L 518.092288 215.027122 
z
" style="fill: #84380b"/>
   </g>
   <g id="text_43">
    <g id="patch_37">
     <path d="M 517.39043 229.943308 
L 560.73668 229.943308 
L 560.73668 160.260808 
L 517.39043 160.260808 
L 517.39043 229.943308 
z
" style="fill: none"/>
    </g>
    <path d="M 539.766202 214.930848 
L 526.991085 214.930848 
L 526.991085 214.940911 
L 538.620047 214.940911 
L 538.620047 214.949075 
L 526.991085 214.949075 
L 526.991085 214.969472 
L 521.054261 214.969472 
L 521.054261 214.922683 
L 539.766202 214.922683 
L 539.766202 214.930848 
z
" style="fill: #84380b"/>
   </g>
   <g id="text_44">
    <g id="patch_38">
     <path d="M 517.39043 229.837654 
L 560.73668 229.837654 
L 560.73668 160.155154 
L 517.39043 160.155154 
L 517.39043 229.837654 
z
" style="fill: none"/>
    </g>
    <path d="M 517.551406 214.816552 
L 523.951843 214.816552 
L 529.785642 214.835539 
L 535.638757 214.816552 
L 542.039194 214.816552 
L 532.766931 214.845189 
L 532.766931 214.863817 
L 526.830108 214.863817 
L 526.830108 214.845189 
L 517.551406 214.816552 
z
" style="fill: #84380b"/>
   </g>
   <g id="text_45">
    <g id="patch_39">
     <path d="M 517.39043 229.673848 
L 560.73668 229.673848 
L 560.73668 159.991348 
L 517.39043 159.991348 
L 517.39043 229.673848 
z
" style="fill: none"/>
    </g>
    <path d="M 539.482883 214.699922 
L 520.770942 214.699922 
L 520.770942 214.605111 
L 539.482883 214.605111 
L 539.482883 214.621655 
L 526.707766 214.621655 
L 526.707766 214.642047 
L 538.278776 214.642047 
L 538.278776 214.658591 
L 526.707766 214.658591 
L 526.707766 214.683378 
L 539.482883 214.683378 
L 539.482883 214.699922 
z
" style="fill: #e41a1c"/>
   </g>
   <g id="text_46">
    <g id="patch_40">
     <path d="M 517.39043 229.374505 
L 560.73668 229.374505 
L 560.73668 159.692005 
L 517.39043 159.692005 
L 517.39043 229.374505 
z
" style="fill: none"/>
    </g>
    <path d="M 520.85465 214.263353 
L 520.85465 214.234374 
L 538.74239 214.234374 
L 538.74239 214.263353 
L 532.766931 214.263353 
L 532.766931 214.371468 
L 538.74239 214.371468 
L 538.74239 214.400447 
L 520.85465 214.400447 
L 520.85465 214.371468 
L 526.830108 214.371468 
L 526.830108 214.263353 
L 520.85465 214.263353 
z
" style="fill: #12ab0d"/>
   </g>
   <g id="text_47">
    <g id="patch_41">
     <path d="M 517.39043 228.86776 
L 560.73668 228.86776 
L 560.73668 159.18526 
L 517.39043 159.18526 
L 517.39043 228.86776 
z
" style="fill: none"/>
    </g>
    <path d="M 527.654309 213.771587 
Q 523.166276 213.756441 521.575826 213.739815 
Q 519.985375 213.723188 519.985375 213.695059 
Q 519.985375 213.658959 522.599638 213.638346 
Q 525.22034 213.617676 529.785642 213.617676 
Q 531.859022 213.617676 533.932403 213.62189 
Q 536.005784 213.626047 538.034092 213.634189 
L 538.034092 213.685436 
Q 536.121688 213.673535 534.151332 213.667329 
Q 532.180976 213.661065 530.249255 213.661065 
Q 528.098605 213.661065 526.946011 213.668752 
Q 525.799857 213.676382 525.799857 213.690618 
Q 525.799857 213.701664 526.636936 213.708896 
Q 527.474015 213.71607 530.126912 213.724782 
L 532.683224 213.733323 
Q 536.308421 213.745053 538.014774 213.76447 
Q 539.727567 213.783887 539.727567 213.813382 
Q 539.727567 213.853639 537.036036 213.873455 
Q 534.350943 213.89327 528.922806 213.89327 
Q 526.688448 213.89327 524.441213 213.888601 
Q 522.200416 213.883875 520.107718 213.874593 
L 520.107718 213.820329 
Q 522.483735 213.835304 524.705214 213.842593 
Q 526.926694 213.849881 529.1031 213.849881 
Q 531.292384 213.849881 532.496491 213.841112 
Q 533.707036 213.832286 533.707036 213.8164 
Q 533.707036 213.804499 532.902152 213.795503 
Q 532.097268 213.786506 530.571208 213.781381 
L 527.654309 213.771587 
z
" style="fill: #ff7f00"/>
   </g>
   <g id="text_48">
    <g id="patch_42">
     <path d="M 517.39043 228.163617 
L 560.73668 228.163617 
L 560.73668 158.481117 
L 517.39043 158.481117 
L 517.39043 228.163617 
z
" style="fill: none"/>
    </g>
    <path d="M 530.590525 213.141651 
Q 530.307206 213.142291 530.114034 213.142504 
Q 529.927301 213.142718 529.747007 213.142718 
Q 524.576433 213.142718 521.910658 213.105098 
Q 519.244882 213.067407 519.244882 212.993875 
Q 519.244882 212.920057 521.910658 212.882296 
Q 524.576433 212.844534 529.785642 212.844534 
Q 535.020606 212.844534 537.686382 212.882296 
Q 540.352157 212.920057 540.352157 212.993875 
Q 540.352157 213.044508 539.08366 213.078643 
Q 537.815163 213.112778 535.400512 213.127428 
L 539.141612 213.162559 
L 535.078558 213.191431 
L 530.590525 213.141651 
z
M 529.785642 212.895594 
Q 527.512649 212.895594 526.463081 212.918849 
Q 525.419951 212.942103 525.419951 212.993875 
Q 525.419951 213.045433 526.463081 213.068687 
Q 527.512649 213.091871 529.785642 213.091871 
Q 532.077951 213.091871 533.12108 213.068687 
Q 534.170649 213.045433 534.170649 212.993875 
Q 534.170649 212.942103 533.12108 212.918849 
Q 532.077951 212.895594 529.785642 212.895594 
z
" style="fill: #972aa8"/>
   </g>
   <g id="text_49">
    <g id="patch_43">
     <path d="M 517.39043 227.37181 
L 560.73668 227.37181 
L 560.73668 157.68931 
L 517.39043 157.68931 
L 517.39043 227.37181 
z
" style="fill: none"/>
    </g>
    <path d="M 534.936898 212.328711 
L 534.936898 212.26291 
L 530.873845 212.26291 
L 530.873845 212.205612 
L 540.12679 212.205612 
L 540.12679 212.363607 
Q 538.420436 212.380464 536.353494 212.389188 
Q 534.292991 212.397838 531.936291 212.397838 
Q 526.102493 212.397838 522.921592 212.35126 
Q 519.74713 212.304682 519.74713 212.218994 
Q 519.74713 212.131901 522.953787 212.085915 
Q 526.166884 212.039928 532.21961 212.039928 
Q 534.028989 212.039928 535.780417 212.045843 
Q 537.531844 212.051758 539.064343 212.062848 
L 539.064343 212.138333 
Q 537.815163 212.11985 536.192517 212.110534 
Q 534.57631 212.101145 532.644589 212.101145 
Q 529.264077 212.101145 527.589918 212.130422 
Q 525.922199 212.159626 525.922199 212.218994 
Q 525.922199 212.276514 527.531967 212.306605 
Q 529.141734 212.336621 532.21961 212.336621 
Q 533.146837 212.336621 533.829378 212.334699 
Q 534.51192 212.332703 534.936898 212.328711 
z
" style="fill: #f76ab4"/>
   </g>
   <g id="text_50">
    <g id="patch_44">
     <path d="M 517.39043 226.486383 
L 560.73668 226.486383 
L 560.73668 156.803883 
L 517.39043 156.803883 
L 517.39043 226.486383 
z
" style="fill: none"/>
    </g>
    <path d="M 520.146352 211.087431 
L 526.083176 211.087431 
L 526.083176 211.249188 
L 533.507425 211.249188 
L 533.507425 211.087431 
L 539.444248 211.087431 
L 539.444248 211.511846 
L 533.507425 211.511846 
L 533.507425 211.322984 
L 526.083176 211.322984 
L 526.083176 211.511846 
L 520.146352 211.511846 
L 520.146352 211.087431 
z
" style="fill: #3c58e5"/>
   </g>
   <g id="text_51">
    <g id="patch_45">
     <path d="M 565.194094 230.030311 
L 608.540344 230.030311 
L 608.540344 160.347811 
L 565.194094 160.347811 
L 565.194094 230.030311 
z
" style="fill: none"/>
    </g>
    <path d="M 569.720761 215.056517 
L 569.720761 215.032622 
L 575.657584 215.032622 
L 575.657584 215.052348 
L 588.355433 215.052348 
L 588.355433 215.056517 
L 569.720761 215.056517 
z
" style="fill: #12ab0d"/>
   </g>
   <g id="text_52">
    <g id="patch_46">
     <path d="M 565.194094 229.963259 
L 608.540344 229.963259 
L 608.540344 160.280759 
L 565.194094 160.280759 
L 565.194094 229.963259 
z
" style="fill: none"/>
    </g>
    <path d="M 567.589428 214.954508 
L 573.970548 214.954508 
L 582.34134 214.979907 
L 582.34134 214.954508 
L 587.569866 214.954508 
L 587.569866 214.989444 
L 581.23382 214.989444 
L 572.817954 214.964044 
L 572.817954 214.989444 
L 567.589428 214.989444 
L 567.589428 214.954508 
z
" style="fill: #972aa8"/>
   </g>
   <g id="text_53">
    <g id="patch_47">
     <path d="M 565.194094 229.869418 
L 608.540344 229.869418 
L 608.540344 160.186918 
L 565.194094 160.186918 
L 565.194094 229.869418 
z
" style="fill: none"/>
    </g>
    <path d="M 566.926204 214.84796 
L 574.009182 214.84796 
L 577.589306 214.868847 
L 581.150112 214.84796 
L 588.271725 214.84796 
L 588.271725 214.89558 
L 583.165541 214.89558 
L 583.165541 214.857437 
L 579.98464 214.878255 
L 575.258362 214.878255 
L 572.038826 214.857437 
L 572.038826 214.89558 
L 566.926204 214.89558 
L 566.926204 214.84796 
z
" style="fill: #12ab0d"/>
   </g>
   <g id="text_54">
    <g id="patch_48">
     <path d="M 565.194094 229.743442 
L 608.540344 229.743442 
L 608.540344 160.060942 
L 565.194094 160.060942 
L 565.194094 229.743442 
z
" style="fill: none"/>
    </g>
    <path d="M 578.39419 214.760848 
Q 578.11087 214.760965 577.917698 214.761004 
Q 577.730965 214.761044 577.550671 214.761044 
Q 572.380097 214.761044 569.714322 214.754143 
Q 567.048546 214.74723 567.048546 214.733743 
Q 567.048546 214.720203 569.714322 214.713277 
Q 572.380097 214.706351 577.589306 214.706351 
Q 582.82427 214.706351 585.490046 214.713277 
Q 588.155821 214.720203 588.155821 214.733743 
Q 588.155821 214.74303 586.887324 214.749291 
Q 585.618827 214.755552 583.204176 214.758239 
L 586.945276 214.764683 
L 582.882222 214.769979 
L 578.39419 214.760848 
z
M 577.589306 214.715716 
Q 575.316314 214.715716 574.266745 214.719982 
Q 573.223615 214.724247 573.223615 214.733743 
Q 573.223615 214.7432 574.266745 214.747465 
Q 575.316314 214.751717 577.589306 214.751717 
Q 579.881615 214.751717 580.924744 214.747465 
Q 581.974313 214.7432 581.974313 214.733743 
Q 581.974313 214.724247 580.924744 214.719982 
Q 579.881615 214.715716 577.589306 214.715716 
z
" style="fill: #972aa8"/>
   </g>
   <g id="text_55">
    <g id="patch_49">
     <path d="M 565.194094 229.577274 
L 608.540344 229.577274 
L 608.540344 159.894774 
L 565.194094 159.894774 
L 565.194094 229.577274 
z
" style="fill: none"/>
    </g>
    <path d="M 567.550794 214.520283 
L 573.487617 214.520283 
L 573.487617 214.553131 
L 582.779197 214.520283 
L 589.501587 214.520283 
L 580.023275 214.553028 
L 589.842858 214.60337 
L 583.24281 214.60337 
L 576.121197 214.565969 
L 573.487617 214.575229 
L 573.487617 214.60337 
L 567.550794 214.60337 
L 567.550794 214.520283 
z
" style="fill: #3c58e5"/>
   </g>
   <g id="text_56">
    <g id="patch_50">
     <path d="M 565.194094 229.339997 
L 608.540344 229.339997 
L 608.540344 159.657497 
L 565.194094 159.657497 
L 565.194094 229.339997 
z
" style="fill: none"/>
    </g>
    <path d="M 565.895952 214.241136 
L 570.789647 214.241136 
L 572.817954 214.332802 
L 575.277679 214.273552 
L 579.926688 214.273552 
L 582.75988 214.332802 
L 584.369648 214.241136 
L 589.301976 214.241136 
L 586.043806 214.366016 
L 580.808841 214.366016 
L 577.589306 214.300488 
L 574.569381 214.366016 
L 569.398807 214.366016 
L 565.895952 214.241136 
z
" style="fill: #84380b"/>
   </g>
   <g id="text_57">
    <g id="patch_51">
     <path d="M 565.194094 229.021795 
L 608.540344 229.021795 
L 608.540344 159.339295 
L 565.194094 159.339295 
L 565.194094 229.021795 
z
" style="fill: none"/>
    </g>
    <path d="M 565.35507 213.891747 
L 571.755507 213.891747 
L 577.589306 213.954421 
L 583.442421 213.891747 
L 589.842858 213.891747 
L 580.570596 213.986272 
L 580.570596 214.047756 
L 574.633772 214.047756 
L 574.633772 213.986272 
L 565.35507 213.891747 
z
" style="fill: #84380b"/>
   </g>
   <g id="text_58">
    <g id="patch_52">
     <path d="M 565.194094 228.661513 
L 608.540344 228.661513 
L 608.540344 158.979013 
L 565.194094 158.979013 
L 565.194094 228.661513 
z
" style="fill: none"/>
    </g>
    <path d="M 575.457973 213.615037 
Q 570.96994 213.606039 569.37949 213.596162 
Q 567.789039 213.586285 567.789039 213.569575 
Q 567.789039 213.548129 570.403302 213.535884 
Q 573.024004 213.523605 577.589306 213.523605 
Q 579.662687 213.523605 581.736067 213.526108 
Q 583.809448 213.528578 585.837756 213.533415 
L 585.837756 213.563858 
Q 583.925352 213.556789 581.954996 213.553102 
Q 579.98464 213.549381 578.052919 213.549381 
Q 575.902269 213.549381 574.749675 213.553947 
Q 573.603521 213.55848 573.603521 213.566936 
Q 573.603521 213.573499 574.4406 213.577795 
Q 575.277679 213.582057 577.930576 213.587232 
L 580.486888 213.592306 
Q 584.112085 213.599274 585.818439 213.610809 
Q 587.531231 213.622343 587.531231 213.639865 
Q 587.531231 213.66378 584.8397 213.675552 
Q 582.154607 213.687323 576.72647 213.687323 
Q 574.492112 213.687323 572.244877 213.684549 
Q 570.00408 213.681742 567.911382 213.676228 
L 567.911382 213.643992 
Q 570.287399 213.652888 572.508878 213.657218 
Q 574.730358 213.661548 576.906764 213.661548 
Q 579.096048 213.661548 580.300155 213.656339 
Q 581.5107 213.651096 581.5107 213.641658 
Q 581.5107 213.634588 580.705816 213.629244 
Q 579.900932 213.623899 578.374872 213.620855 
L 575.457973 213.615037 
z
" style="fill: #ff7f00"/>
   </g>
   <g id="text_59">
    <g id="patch_53">
     <path d="M 565.194094 228.286879 
L 608.540344 228.286879 
L 608.540344 158.604379 
L 565.194094 158.604379 
L 565.194094 228.286879 
z
" style="fill: none"/>
    </g>
    <path d="M 580.570596 213.312816 
L 574.633772 213.312816 
L 574.633772 213.172947 
L 567.003473 213.172947 
L 567.003473 213.143761 
L 588.194456 213.143761 
L 588.194456 213.172947 
L 580.570596 213.172947 
L 580.570596 213.312816 
z
" style="fill: #ff7f00"/>
   </g>
   <g id="text_60">
    <g id="patch_54">
     <path d="M 565.194094 227.346818 
L 608.540344 227.346818 
L 608.540344 157.664318 
L 565.194094 157.664318 
L 565.194094 227.346818 
z
" style="fill: none"/>
    </g>
    <path d="M 577.589306 211.854121 
L 574.794749 212.1134 
L 580.409619 212.1134 
L 577.589306 211.854121 
z
M 573.970548 211.739565 
L 581.23382 211.739565 
L 589.34061 212.373068 
L 583.403787 212.373068 
L 581.555773 212.216253 
L 573.603521 212.216253 
L 571.794142 212.373068 
L 565.857318 212.373068 
L 573.970548 211.739565 
z
" style="fill: #f76ab4"/>
   </g>
   <g id="text_61">
    <g id="patch_55">
     <path d="M 565.194094 225.759167 
L 608.540344 225.759167 
L 608.540344 156.076667 
L 565.194094 156.076667 
L 565.194094 225.759167 
z
" style="fill: none"/>
    </g>
    <path d="M 587.569866 210.147096 
L 574.794749 210.147096 
L 574.794749 210.313034 
L 586.423711 210.313034 
L 586.423711 210.44766 
L 574.794749 210.44766 
L 574.794749 210.783987 
L 568.857925 210.783987 
L 568.857925 210.01247 
L 587.569866 210.01247 
L 587.569866 210.147096 
z
" style="fill: #84380b"/>
   </g>
   <g id="text_62">
    <g id="patch_56">
     <path d="M 612.997758 230.055722 
L 656.344008 230.055722 
L 656.344008 160.373222 
L 612.997758 160.373222 
L 612.997758 230.055722 
z
" style="fill: none"/>
    </g>
    <path d="M 625.39297 215.081481 
L 630.685886 215.079024 
L 636.661344 215.079024 
L 629.520414 215.081966 
L 621.291281 215.081966 
L 614.143912 215.079024 
L 620.11937 215.079024 
L 625.39297 215.081481 
z
" style="fill: #12ab0d"/>
   </g>
   <g id="text_63">
    <g id="patch_57">
     <path d="M 612.997758 230.040397 
L 656.344008 230.040397 
L 656.344008 160.357897 
L 612.997758 160.357897 
L 612.997758 230.040397 
z
" style="fill: none"/>
    </g>
    <path d="M 615.393092 215.056498 
L 621.774212 215.056498 
L 630.145004 215.063863 
L 630.145004 215.056498 
L 635.37353 215.056498 
L 635.37353 215.066628 
L 629.037484 215.066628 
L 620.621618 215.059263 
L 620.621618 215.066628 
L 615.393092 215.066628 
L 615.393092 215.056498 
z
" style="fill: #972aa8"/>
   </g>
   <g id="text_64">
    <g id="patch_58">
     <path d="M 612.997758 229.983833 
L 656.344008 229.983833 
L 656.344008 160.301333 
L 612.997758 160.301333 
L 612.997758 229.983833 
z
" style="fill: none"/>
    </g>
    <path d="M 622.192751 214.978319 
L 622.192751 214.989478 
L 624.62672 214.989478 
Q 627.543619 214.989478 628.721969 214.988233 
Q 629.900319 214.98698 629.900319 214.983895 
Q 629.900319 214.980809 628.721969 214.979564 
Q 627.543619 214.978319 624.62672 214.978319 
L 622.192751 214.978319 
z
M 616.255928 214.971999 
L 624.407792 214.971999 
Q 630.627934 214.971999 633.351662 214.974802 
Q 636.075389 214.977606 636.075389 214.983895 
Q 636.075389 214.990183 633.351662 214.992987 
Q 630.627934 214.99579 624.407792 214.99579 
L 622.192751 214.99579 
L 622.192751 215.010012 
L 616.255928 215.010012 
L 616.255928 214.971999 
z
" style="fill: #12ab0d"/>
   </g>
   <g id="text_65">
    <g id="patch_59">
     <path d="M 612.997758 229.875212 
L 656.344008 229.875212 
L 656.344008 160.192712 
L 612.997758 160.192712 
L 612.997758 229.875212 
z
" style="fill: none"/>
    </g>
    <path d="M 623.261637 214.876132 
Q 618.773605 214.872998 617.183154 214.869558 
Q 615.592703 214.866118 615.592703 214.860298 
Q 615.592703 214.852829 618.206966 214.848564 
Q 620.827668 214.844287 625.39297 214.844287 
Q 627.466351 214.844287 629.539731 214.845159 
Q 631.613112 214.846019 633.64142 214.847704 
L 633.64142 214.858307 
Q 631.729016 214.855845 629.75866 214.85456 
Q 627.788304 214.853264 625.856583 214.853264 
Q 623.705933 214.853264 622.553339 214.854855 
Q 621.407185 214.856434 621.407185 214.859379 
Q 621.407185 214.861665 622.244264 214.863161 
Q 623.081343 214.864645 625.73424 214.866448 
L 628.290552 214.868215 
Q 631.915749 214.870642 633.622103 214.874659 
Q 635.334895 214.878677 635.334895 214.88478 
Q 635.334895 214.893109 632.643364 214.897209 
Q 629.958271 214.901309 624.530134 214.901309 
Q 622.295776 214.901309 620.048541 214.900343 
Q 617.807744 214.899365 615.715046 214.897444 
L 615.715046 214.886217 
Q 618.091063 214.889315 620.312543 214.890823 
Q 622.534022 214.892331 624.710428 214.892331 
Q 626.899712 214.892331 628.103819 214.890517 
Q 629.314364 214.888691 629.314364 214.885404 
Q 629.314364 214.882942 628.50948 214.88108 
Q 627.704596 214.879219 626.178536 214.878158 
L 623.261637 214.876132 
z
" style="fill: #ff7f00"/>
   </g>
   <g id="text_66">
    <g id="patch_60">
     <path d="M 612.997758 229.722823 
L 656.344008 229.722823 
L 656.344008 160.040323 
L 612.997758 160.040323 
L 612.997758 229.722823 
z
" style="fill: none"/>
    </g>
    <path d="M 613.158735 214.671985 
L 619.559171 214.671985 
L 625.39297 214.702896 
L 631.246085 214.671985 
L 637.646522 214.671985 
L 628.37426 214.718605 
L 628.37426 214.74893 
L 622.437436 214.74893 
L 622.437436 214.718605 
L 613.158735 214.671985 
z
" style="fill: #84380b"/>
   </g>
   <g id="text_67">
    <g id="patch_61">
     <path d="M 612.997758 229.54997 
L 656.344008 229.54997 
L 656.344008 159.86747 
L 612.997758 159.86747 
L 612.997758 229.54997 
z
" style="fill: none"/>
    </g>
    <path d="M 634.74894 214.572446 
Q 633.338783 214.574238 631.786967 214.575126 
Q 630.24159 214.576014 628.535236 214.576014 
Q 622.456753 214.576014 619.256535 214.566165 
Q 616.056317 214.556299 616.056317 214.537663 
Q 616.056317 214.518979 619.256535 214.509114 
Q 622.456753 214.499249 628.535236 214.499249 
Q 630.24159 214.499249 631.812724 214.500137 
Q 633.383857 214.501025 634.74894 214.502817 
L 634.74894 214.519075 
Q 633.22288 214.515601 631.780528 214.513999 
Q 630.344615 214.512381 628.812116 214.512381 
Q 625.553946 214.512381 623.892666 214.518757 
Q 622.231386 214.525117 622.231386 214.537663 
Q 622.231386 214.550146 623.892666 214.556522 
Q 625.553946 214.562882 628.812116 214.562882 
Q 630.344615 214.562882 631.780528 214.56128 
Q 633.22288 214.559662 634.74894 214.556188 
L 634.74894 214.572446 
z
" style="fill: #ff7f00"/>
   </g>
   <g id="text_68">
    <g id="patch_62">
     <path d="M 612.997758 229.118968 
L 656.344008 229.118968 
L 656.344008 159.436468 
L 612.997758 159.436468 
L 612.997758 229.118968 
z
" style="fill: none"/>
    </g>
    <path d="M 616.461978 213.905432 
L 616.461978 213.854859 
L 634.349718 213.854859 
L 634.349718 213.905432 
L 628.37426 213.905432 
L 628.37426 214.094108 
L 634.349718 214.094108 
L 634.349718 214.144681 
L 616.461978 214.144681 
L 616.461978 214.094108 
L 622.437436 214.094108 
L 622.437436 213.905432 
L 616.461978 213.905432 
z
" style="fill: #12ab0d"/>
   </g>
   <g id="text_69">
    <g id="patch_63">
     <path d="M 612.997758 228.364318 
L 656.344008 228.364318 
L 656.344008 158.681818 
L 612.997758 158.681818 
L 612.997758 228.364318 
z
" style="fill: none"/>
    </g>
    <path d="M 617.524425 213.389872 
L 617.524425 213.014474 
L 623.461248 213.014474 
L 623.461248 213.324367 
L 636.159097 213.324367 
L 636.159097 213.389872 
L 617.524425 213.389872 
z
" style="fill: #12ab0d"/>
   </g>
   <g id="text_70">
    <g id="patch_64">
     <path d="M 612.997758 227.374477 
L 656.344008 227.374477 
L 656.344008 157.691977 
L 612.997758 157.691977 
L 612.997758 227.374477 
z
" style="fill: none"/>
    </g>
    <path d="M 635.37353 211.989996 
L 622.598413 211.989996 
L 622.598413 212.09677 
L 634.227375 212.09677 
L 634.227375 212.183396 
L 622.598413 212.183396 
L 622.598413 212.399807 
L 616.661589 212.399807 
L 616.661589 211.90337 
L 635.37353 211.90337 
L 635.37353 211.989996 
z
" style="fill: #84380b"/>
   </g>
   <g id="text_71">
    <g id="patch_65">
     <path d="M 612.997758 226.072393 
L 656.344008 226.072393 
L 656.344008 156.389893 
L 612.997758 156.389893 
L 612.997758 226.072393 
z
" style="fill: none"/>
    </g>
    <path d="M 629.237095 210.790267 
Q 630.119248 210.794022 630.776033 210.808368 
Q 631.432818 210.82258 632.372923 210.863205 
L 637.807499 211.097436 
L 631.291159 211.097436 
L 627.665962 210.933193 
Q 627.504985 210.925952 627.247422 210.913886 
Q 625.656972 210.840144 623.499883 210.840144 
L 621.613235 210.840144 
L 621.613235 211.097436 
L 615.676411 211.097436 
L 615.676411 210.44663 
L 624.246815 210.44663 
Q 630.041979 210.44663 632.566095 210.491144 
Q 635.090211 210.535523 635.090211 210.63608 
Q 635.090211 210.703118 633.583468 210.742805 
Q 632.076725 210.782357 629.237095 210.790267 
z
M 621.613235 210.55483 
L 621.613235 210.732078 
L 624.407792 210.732078 
Q 626.841761 210.732078 627.897768 210.711565 
Q 628.953776 210.690917 628.953776 210.643186 
Q 628.953776 210.595857 627.904207 210.575343 
Q 626.861078 210.55483 624.407792 210.55483 
L 621.613235 210.55483 
z
" style="fill: #3c58e5"/>
   </g>
   <g id="text_72">
    <g id="patch_66">
     <path d="M 612.997758 224.576507 
L 656.344008 224.576507 
L 656.344008 154.894007 
L 612.997758 154.894007 
L 612.997758 224.576507 
z
" style="fill: none"/>
    </g>
    <path d="M 613.699616 208.922384 
L 618.593311 208.922384 
L 620.621618 209.420876 
L 623.081343 209.098668 
L 627.730352 209.098668 
L 630.563544 209.420876 
L 632.173312 208.922384 
L 637.10564 208.922384 
L 633.84747 209.601498 
L 628.612505 209.601498 
L 625.39297 209.245152 
L 622.373045 209.601498 
L 617.202471 209.601498 
L 613.699616 208.922384 
z
" style="fill: #84380b"/>
   </g>
   <g id="text_73">
    <g id="patch_67">
     <path d="M 660.801422 230.032155 
L 704.147672 230.032155 
L 704.147672 160.349655 
L 660.801422 160.349655 
L 660.801422 230.032155 
z
" style="fill: none"/>
    </g>
    <path d="M 664.265642 215.039893 
L 664.265642 215.035988 
L 682.153382 215.035988 
L 682.153382 215.039893 
L 676.177924 215.039893 
L 676.177924 215.054459 
L 682.153382 215.054459 
L 682.153382 215.058364 
L 664.265642 215.058364 
L 664.265642 215.054459 
L 670.2411 215.054459 
L 670.2411 215.039893 
L 664.265642 215.039893 
z
" style="fill: #12ab0d"/>
   </g>
   <g id="text_74">
    <g id="patch_68">
     <path d="M 660.801422 229.973289 
L 704.147672 229.973289 
L 704.147672 160.290789 
L 660.801422 160.290789 
L 660.801422 229.973289 
z
" style="fill: none"/>
    </g>
    <path d="M 682.893875 214.999484 
L 664.181934 214.999484 
L 664.181934 214.970004 
L 682.893875 214.970004 
L 682.893875 214.975148 
L 670.118758 214.975148 
L 670.118758 214.981489 
L 681.689769 214.981489 
L 681.689769 214.986633 
L 670.118758 214.986633 
L 670.118758 214.99434 
L 682.893875 214.99434 
L 682.893875 214.999484 
z
" style="fill: #e41a1c"/>
   </g>
   <g id="text_75">
    <g id="patch_69">
     <path d="M 660.801422 229.881384 
L 704.147672 229.881384 
L 704.147672 160.198884 
L 660.801422 160.198884 
L 660.801422 229.881384 
z
" style="fill: none"/>
    </g>
    <path d="M 677.040759 214.883624 
Q 677.922912 214.883916 678.579697 214.885033 
Q 679.236482 214.88614 680.176587 214.889303 
L 685.611163 214.90754 
L 679.094823 214.90754 
L 675.469626 214.894752 
Q 675.308649 214.894188 675.051086 214.893249 
Q 673.460636 214.887507 671.303547 214.887507 
L 669.416899 214.887507 
L 669.416899 214.90754 
L 663.480075 214.90754 
L 663.480075 214.856868 
L 672.050479 214.856868 
Q 677.845643 214.856868 680.369759 214.860334 
Q 682.893875 214.86379 682.893875 214.871619 
Q 682.893875 214.876838 681.387132 214.879928 
Q 679.88039 214.883008 677.040759 214.883624 
z
M 669.416899 214.865293 
L 669.416899 214.879093 
L 672.211456 214.879093 
Q 674.645425 214.879093 675.701432 214.877496 
Q 676.75744 214.875888 676.75744 214.872172 
Q 676.75744 214.868487 675.707871 214.86689 
Q 674.664742 214.865293 672.211456 214.865293 
L 669.416899 214.865293 
z
" style="fill: #3c58e5"/>
   </g>
   <g id="text_76">
    <g id="patch_70">
     <path d="M 660.801422 229.756769 
L 704.147672 229.756769 
L 704.147672 160.074269 
L 660.801422 160.074269 
L 660.801422 229.756769 
z
" style="fill: none"/>
    </g>
    <path d="M 660.962399 214.723316 
L 667.362835 214.723316 
L 673.196634 214.747256 
L 679.049749 214.723316 
L 685.450186 214.723316 
L 676.177924 214.759423 
L 676.177924 214.782908 
L 670.2411 214.782908 
L 670.2411 214.759423 
L 660.962399 214.723316 
z
" style="fill: #84380b"/>
   </g>
   <g id="text_77">
    <g id="patch_71">
     <path d="M 660.801422 229.51728 
L 704.147672 229.51728 
L 704.147672 159.83478 
L 660.801422 159.83478 
L 660.801422 229.51728 
z
" style="fill: none"/>
    </g>
    <path d="M 661.503281 214.39654 
L 666.396975 214.39654 
L 668.425282 214.504236 
L 670.885007 214.434625 
L 675.534017 214.434625 
L 678.367208 214.504236 
L 679.976976 214.39654 
L 684.909304 214.39654 
L 681.651134 214.543258 
L 676.416169 214.543258 
L 673.196634 214.466271 
L 670.176709 214.543258 
L 665.006135 214.543258 
L 661.503281 214.39654 
z
" style="fill: #84380b"/>
   </g>
   <g id="text_78">
    <g id="patch_72">
     <path d="M 660.801422 229.173502 
L 704.147672 229.173502 
L 704.147672 159.491002 
L 660.801422 159.491002 
L 660.801422 229.173502 
z
" style="fill: none"/>
    </g>
    <path d="M 683.177194 214.068619 
L 670.402077 214.068619 
L 670.402077 214.102709 
L 682.031039 214.102709 
L 682.031039 214.130365 
L 670.402077 214.130365 
L 670.402077 214.199458 
L 664.465253 214.199458 
L 664.465253 214.040963 
L 683.177194 214.040963 
L 683.177194 214.068619 
z
" style="fill: #84380b"/>
   </g>
   <g id="text_79">
    <g id="patch_73">
     <path d="M 708.605086 230.009576 
L 751.951336 230.009576 
L 751.951336 160.327076 
L 708.605086 160.327076 
L 708.605086 230.009576 
z
" style="fill: none"/>
    </g>
    <path d="M 713.131753 215.03575 
L 713.131753 214.994756 
L 719.068576 214.994756 
L 719.068576 215.028597 
L 731.766425 215.028597 
L 731.766425 215.03575 
L 713.131753 215.03575 
z
" style="fill: #12ab0d"/>
   </g>
   <g id="text_80">
    <g id="patch_74">
     <path d="M 708.605086 229.830379 
L 751.951336 229.830379 
L 751.951336 160.147879 
L 708.605086 160.147879 
L 708.605086 229.830379 
z
" style="fill: none"/>
    </g>
    <path d="M 711.00042 214.743575 
L 717.38154 214.743575 
L 725.752332 214.825616 
L 725.752332 214.743575 
L 730.980858 214.743575 
L 730.980858 214.856419 
L 724.644812 214.856419 
L 716.228946 214.774378 
L 716.228946 214.856419 
L 711.00042 214.856419 
L 711.00042 214.743575 
z
" style="fill: #972aa8"/>
   </g>
   <g id="text_81">
    <g id="patch_75">
     <path d="M 708.605086 229.354727 
L 751.951336 229.354727 
L 751.951336 159.672227 
L 708.605086 159.672227 
L 708.605086 229.354727 
z
" style="fill: none"/>
    </g>
    <path d="M 721.000298 214.137526 
L 718.205741 214.25916 
L 723.820611 214.25916 
L 721.000298 214.137526 
z
M 717.38154 214.083785 
L 724.644812 214.083785 
L 732.751603 214.380977 
L 726.814779 214.380977 
L 724.966766 214.307411 
L 717.014513 214.307411 
L 715.205134 214.380977 
L 709.26831 214.380977 
L 717.38154 214.083785 
z
" style="fill: #f76ab4"/>
   </g>
   <g id="text_82">
    <g id="patch_76">
     <path d="M 756.40875 230.038516 
L 799.755 230.038516 
L 799.755 160.356016 
L 756.40875 160.356016 
L 756.40875 230.038516 
z
" style="fill: none"/>
    </g>
    <path d="M 766.672629 215.057179 
Q 762.184597 215.05624 760.594146 215.055209 
Q 759.003696 215.054179 759.003696 215.052436 
Q 759.003696 215.050198 761.617958 215.048921 
Q 764.23866 215.04764 768.803962 215.04764 
Q 770.877343 215.04764 772.950724 215.047901 
Q 775.024105 215.048158 777.052412 215.048663 
L 777.052412 215.051839 
Q 775.140008 215.051102 773.169652 215.050717 
Q 771.199296 215.050329 769.267575 215.050329 
Q 767.116925 215.050329 765.964331 215.050805 
Q 764.818177 215.051278 764.818177 215.05216 
Q 764.818177 215.052845 765.655256 215.053293 
Q 766.492335 215.053738 769.145233 215.054278 
L 771.701544 215.054807 
Q 775.326741 215.055534 777.033095 215.056737 
Q 778.745888 215.057941 778.745888 215.059769 
Q 778.745888 215.062264 776.054356 215.063492 
Q 773.369263 215.06472 767.941126 215.06472 
Q 765.706769 215.06472 763.459533 215.064431 
Q 761.218736 215.064138 759.126038 215.063563 
L 759.126038 215.060199 
Q 761.502055 215.061128 763.723535 215.061579 
Q 765.945014 215.062031 768.12142 215.062031 
Q 770.310704 215.062031 771.514811 215.061488 
Q 772.725356 215.060941 772.725356 215.059956 
Q 772.725356 215.059218 771.920472 215.058661 
Q 771.115588 215.058103 769.589528 215.057786 
L 766.672629 215.057179 
z
" style="fill: #ff7f00"/>
   </g>
   <g id="text_83">
    <g id="patch_77">
     <path d="M 756.40875 229.996544 
L 799.755 229.996544 
L 799.755 160.314044 
L 756.40875 160.314044 
L 756.40875 229.996544 
z
" style="fill: none"/>
    </g>
    <path d="M 758.804084 215.002739 
L 765.185204 215.002739 
L 773.555996 215.017293 
L 773.555996 215.002739 
L 778.784522 215.002739 
L 778.784522 215.022757 
L 772.448476 215.022757 
L 764.03261 215.008204 
L 764.03261 215.022757 
L 758.804084 215.022757 
L 758.804084 215.002739 
z
" style="fill: #972aa8"/>
   </g>
   <g id="text_84">
    <g id="patch_78">
     <path d="M 756.40875 229.618442 
L 799.755 229.618442 
L 799.755 159.935942 
L 756.40875 159.935942 
L 756.40875 229.618442 
z
" style="fill: none"/>
    </g>
    <path d="M 758.14086 214.349416 
L 765.223838 214.349416 
L 768.803962 214.478687 
L 772.364768 214.349416 
L 779.486381 214.349416 
L 779.486381 214.644146 
L 774.380197 214.644146 
L 774.380197 214.408071 
L 771.199296 214.536916 
L 766.473018 214.536916 
L 763.253483 214.408071 
L 763.253483 214.644146 
L 758.14086 214.644146 
L 758.14086 214.349416 
z
" style="fill: #12ab0d"/>
   </g>
   <g id="text_85">
    <g id="patch_79">
     <path d="M 804.212414 229.883408 
L 847.558664 229.883408 
L 847.558664 160.200908 
L 804.212414 160.200908 
L 804.212414 229.883408 
z
" style="fill: none"/>
    </g>
    <path d="M 816.607626 214.790411 
L 813.813069 214.84999 
L 819.427939 214.84999 
L 816.607626 214.790411 
z
M 812.988868 214.764088 
L 820.25214 214.764088 
L 828.358931 214.909658 
L 822.422107 214.909658 
L 820.574094 214.873624 
L 812.621841 214.873624 
L 810.812462 214.909658 
L 804.875638 214.909658 
L 812.988868 214.764088 
z
" style="fill: #f76ab4"/>
   </g>
   <g id="text_86">
    <g id="patch_80">
     <path d="M 804.212414 229.369163 
L 847.558664 229.369163 
L 847.558664 159.686663 
L 804.212414 159.686663 
L 804.212414 229.369163 
z
" style="fill: none"/>
    </g>
    <path d="M 808.739081 214.394855 
L 808.739081 214.094356 
L 814.675905 214.094356 
L 814.675905 214.34242 
L 827.373753 214.34242 
L 827.373753 214.394855 
L 808.739081 214.394855 
z
" style="fill: #12ab0d"/>
   </g>
   <g id="text_87">
    <g id="patch_81">
     <path d="M 804.212414 228.511894 
L 847.558664 228.511894 
L 847.558664 158.829394 
L 804.212414 158.829394 
L 804.212414 228.511894 
z
" style="fill: none"/>
    </g>
    <path d="M 826.588186 213.165072 
L 813.813069 213.165072 
L 813.813069 213.262056 
L 825.442031 213.262056 
L 825.442031 213.340739 
L 813.813069 213.340739 
L 813.813069 213.537308 
L 807.876245 213.537308 
L 807.876245 213.086388 
L 826.588186 213.086388 
L 826.588186 213.165072 
z
" style="fill: #84380b"/>
   </g>
   <g id="text_88">
    <g id="patch_82">
     <path d="M 804.212414 226.851453 
L 847.558664 226.851453 
L 847.558664 157.168953 
L 804.212414 157.168953 
L 804.212414 226.851453 
z
" style="fill: none"/>
    </g>
    <path d="M 825.963596 211.829403 
Q 824.55344 211.852335 823.001623 211.8637 
Q 821.456246 211.875065 819.749893 211.875065 
Q 813.671409 211.875065 810.471191 211.749038 
Q 807.270973 211.622808 807.270973 211.384352 
Q 807.270973 211.145287 810.471191 211.019057 
Q 813.671409 210.892828 819.749893 210.892828 
Q 821.456246 210.892828 823.02738 210.904192 
Q 824.598513 210.915557 825.963596 210.938489 
L 825.963596 211.146505 
Q 824.437536 211.10206 822.995184 211.081563 
Q 821.559272 211.060863 820.026773 211.060863 
Q 816.768603 211.060863 815.107322 211.142446 
Q 813.446042 211.223825 813.446042 211.384352 
Q 813.446042 211.544067 815.107322 211.62565 
Q 816.768603 211.707029 820.026773 211.707029 
Q 821.559272 211.707029 822.995184 211.686532 
Q 824.437536 211.665832 825.963596 211.621388 
L 825.963596 211.829403 
z
" style="fill: #ff7f00"/>
   </g>
   <g id="text_89">
    <g id="patch_83">
     <path d="M 852.016078 230.0197 
L 895.362328 230.0197 
L 895.362328 160.3372 
L 852.016078 160.3372 
L 852.016078 230.0197 
z
" style="fill: none"/>
    </g>
    <path d="M 854.372778 215.013243 
L 860.309602 215.013243 
L 860.309602 215.026149 
L 869.601181 215.013243 
L 876.323572 215.013243 
L 866.845259 215.026109 
L 876.664842 215.045889 
L 870.064794 215.045889 
L 862.943182 215.031194 
L 860.309602 215.034832 
L 860.309602 215.045889 
L 854.372778 215.045889 
L 854.372778 215.013243 
z
" style="fill: #3c58e5"/>
   </g>
   <g id="text_90">
    <g id="patch_84">
     <path d="M 875.91791 230.034327 
L 919.26416 230.034327 
L 919.26416 160.351827 
L 875.91791 160.351827 
L 875.91791 230.034327 
z
" style="fill: none"/>
    </g>
    <path d="M 876.619769 215.039955 
L 881.513463 215.039955 
L 883.54177 215.055064 
L 886.001495 215.045298 
L 890.650505 215.045298 
L 893.483696 215.055064 
L 895.093464 215.039955 
L 900.025792 215.039955 
L 896.767622 215.060539 
L 891.532658 215.060539 
L 888.313122 215.049738 
L 885.293198 215.060539 
L 880.122623 215.060539 
L 876.619769 215.039955 
z
" style="fill: #84380b"/>
   </g>
   <g id="text_91">
    <g id="patch_85">
     <path d="M 899.819742 230.02638 
L 943.165992 230.02638 
L 943.165992 160.34388 
L 899.819742 160.34388 
L 899.819742 230.02638 
z
" style="fill: none"/>
    </g>
    <path d="M 909.014736 215.029953 
L 909.014736 215.03792 
L 911.448705 215.03792 
Q 914.365604 215.03792 915.543954 215.037031 
Q 916.722304 215.036137 916.722304 215.033934 
Q 916.722304 215.031731 915.543954 215.030842 
Q 914.365604 215.029953 911.448705 215.029953 
L 909.014736 215.029953 
z
M 903.077912 215.025442 
L 911.229776 215.025442 
Q 917.449919 215.025442 920.173646 215.027443 
Q 922.897373 215.029445 922.897373 215.033934 
Q 922.897373 215.038423 920.173646 215.040425 
Q 917.449919 215.042426 911.229776 215.042426 
L 909.014736 215.042426 
L 909.014736 215.052579 
L 903.077912 215.052579 
L 903.077912 215.025442 
z
" style="fill: #12ab0d"/>
   </g>
   <g id="text_92">
    <g id="patch_86">
     <path d="M 899.819742 229.954192 
L 943.165992 229.954192 
L 943.165992 160.271692 
L 899.819742 160.271692 
L 899.819742 229.954192 
z
" style="fill: none"/>
    </g>
    <path d="M 902.215077 214.943967 
L 908.596196 214.943967 
L 916.966988 214.970436 
L 916.966988 214.943967 
L 922.195514 214.943967 
L 922.195514 214.980375 
L 915.859468 214.980375 
L 907.443602 214.953905 
L 907.443602 214.980375 
L 902.215077 214.980375 
L 902.215077 214.943967 
z
" style="fill: #972aa8"/>
   </g>
   <g id="text_93">
    <g id="patch_87">
     <path d="M 899.819742 229.758234 
L 943.165992 229.758234 
L 943.165992 160.075734 
L 899.819742 160.075734 
L 899.819742 229.758234 
z
" style="fill: none"/>
    </g>
    <path d="M 922.195514 214.676455 
L 909.420397 214.676455 
L 909.420397 214.704538 
L 921.04936 214.704538 
L 921.04936 214.727322 
L 909.420397 214.727322 
L 909.420397 214.784242 
L 903.483574 214.784242 
L 903.483574 214.65367 
L 922.195514 214.65367 
L 922.195514 214.676455 
z
" style="fill: #84380b"/>
   </g>
   <g id="text_94">
    <g id="patch_88">
     <path d="M 899.819742 229.463006 
L 943.165992 229.463006 
L 943.165992 159.780506 
L 899.819742 159.780506 
L 899.819742 229.463006 
z
" style="fill: none"/>
    </g>
    <path d="M 915.196244 214.489011 
L 909.25942 214.489011 
L 909.25942 214.37962 
L 901.629121 214.37962 
L 901.629121 214.356794 
L 922.820104 214.356794 
L 922.820104 214.37962 
L 915.196244 214.37962 
L 915.196244 214.489011 
z
" style="fill: #ff7f00"/>
   </g>
   <g id="text_95">
    <g id="patch_89">
     <path d="M 923.721574 229.996158 
L 967.067824 229.996158 
L 967.067824 160.313658 
L 923.721574 160.313658 
L 923.721574 229.996158 
z
" style="fill: none"/>
    </g>
    <path d="M 946.097346 214.979337 
L 933.322229 214.979337 
L 933.322229 214.990533 
L 944.951192 214.990533 
L 944.951192 214.999617 
L 933.322229 214.999617 
L 933.322229 215.022311 
L 927.385406 215.022311 
L 927.385406 214.970253 
L 946.097346 214.970253 
L 946.097346 214.979337 
z
" style="fill: #84380b"/>
   </g>
   <g id="text_96">
    <g id="patch_90">
     <path d="M 923.721574 229.545242 
L 967.067824 229.545242 
L 967.067824 159.862742 
L 923.721574 159.862742 
L 923.721574 229.545242 
z
" style="fill: none"/>
    </g>
    <path d="M 933.985453 214.426441 
Q 929.497421 214.408495 927.90697 214.388795 
Q 926.31652 214.369095 926.31652 214.335767 
Q 926.31652 214.292994 928.930783 214.268572 
Q 931.551485 214.244082 936.116786 214.244082 
Q 938.190167 214.244082 940.263548 214.249074 
Q 942.336929 214.253999 944.365236 214.263647 
L 944.365236 214.324366 
Q 942.452832 214.310265 940.482476 214.302911 
Q 938.51212 214.29549 936.580399 214.29549 
Q 934.429749 214.29549 933.277156 214.304598 
Q 932.131001 214.313639 932.131001 214.330505 
Q 932.131001 214.343593 932.96808 214.352161 
Q 933.805159 214.360662 936.458057 214.370984 
L 939.014368 214.381104 
Q 942.639565 214.395002 944.345919 214.418008 
Q 946.058712 214.441014 946.058712 214.475961 
Q 946.058712 214.523659 943.36718 214.547137 
Q 940.682087 214.570615 935.25395 214.570615 
Q 933.019593 214.570615 930.772357 214.565083 
Q 928.53156 214.559483 926.438862 214.548486 
L 926.438862 214.484191 
Q 928.814879 214.501935 931.036359 214.510571 
Q 933.257838 214.519206 935.434244 214.519206 
Q 937.623529 214.519206 938.827635 214.508816 
Q 940.03818 214.498359 940.03818 214.479536 
Q 940.03818 214.465436 939.233296 214.454777 
Q 938.428413 214.444117 936.902353 214.438045 
L 933.985453 214.426441 
z
" style="fill: #ff7f00"/>
   </g>
   <g id="text_97">
    <g id="patch_91">
     <path d="M 923.721574 228.671402 
L 967.067824 228.671402 
L 967.067824 158.988902 
L 923.721574 158.988902 
L 923.721574 228.671402 
z
" style="fill: none"/>
    </g>
    <path d="M 924.423433 213.25523 
L 929.317127 213.25523 
L 931.345434 213.579382 
L 933.805159 213.369861 
L 938.454169 213.369861 
L 941.28736 213.579382 
L 942.897128 213.25523 
L 947.829456 213.25523 
L 944.571286 213.696833 
L 939.336322 213.696833 
L 936.116786 213.465114 
L 933.096862 213.696833 
L 927.926288 213.696833 
L 924.423433 213.25523 
z
" style="fill: #84380b"/>
   </g>
   <g id="text_98">
    <g id="patch_92">
     <path d="M 923.721574 227.216905 
L 967.067824 227.216905 
L 967.067824 157.534405 
L 923.721574 157.534405 
L 923.721574 227.216905 
z
" style="fill: none"/>
    </g>
    <path d="M 923.882551 211.418434 
L 930.282988 211.418434 
L 936.116786 211.749136 
L 941.969902 211.418434 
L 948.370338 211.418434 
L 939.098076 211.917201 
L 939.098076 212.241628 
L 933.161252 212.241628 
L 933.161252 211.917201 
L 923.882551 211.418434 
z
" style="fill: #84380b"/>
   </g>
   <g id="text_99">
    <g id="patch_93">
     <path d="M 923.721574 224.253949 
L 967.067824 224.253949 
L 967.067824 154.571449 
L 923.721574 154.571449 
L 923.721574 224.253949 
z
" style="fill: none"/>
    </g>
    <path d="M 936.116786 208.72339 
L 941.409702 205.93315 
L 947.38516 205.93315 
L 940.244231 209.274005 
L 932.015098 209.274005 
L 924.867729 205.93315 
L 930.843187 205.93315 
L 936.116786 208.72339 
z
" style="fill: #12ab0d"/>
   </g>
   <g id="text_100">
    <g id="patch_94">
     <path d="M 923.721574 218.561741 
L 967.067824 218.561741 
L 967.067824 148.879241 
L 923.721574 148.879241 
L 923.721574 218.561741 
z
" style="fill: none"/>
    </g>
    <path d="M 925.453684 197.252875 
L 932.536662 197.252875 
L 936.116786 200.026361 
L 939.677592 197.252875 
L 946.799205 197.252875 
L 946.799205 203.576266 
L 941.693022 203.576266 
L 941.693022 198.5113 
L 938.51212 201.275667 
L 933.785842 201.275667 
L 930.566307 198.5113 
L 930.566307 203.576266 
L 925.453684 203.576266 
L 925.453684 197.252875 
z
" style="fill: #12ab0d"/>
   </g>
   <g id="text_101">
    <g id="patch_95">
     <path d="M 923.721574 209.773949 
L 967.067824 209.773949 
L 967.067824 140.091449 
L 923.721574 140.091449 
L 923.721574 209.773949 
z
" style="fill: none"/>
    </g>
    <path d="M 926.116909 188.12833 
L 932.498028 188.12833 
L 940.86882 192.969997 
L 940.86882 188.12833 
L 946.097346 188.12833 
L 946.097346 194.787851 
L 939.7613 194.787851 
L 931.345434 189.946185 
L 931.345434 194.787851 
L 926.116909 194.787851 
L 926.116909 188.12833 
z
" style="fill: #972aa8"/>
   </g>
   <g id="text_102">
    <g id="patch_96">
     <path d="M 923.721574 200.598567 
L 967.067824 200.598567 
L 967.067824 130.916067 
L 923.721574 130.916067 
L 923.721574 200.598567 
z
" style="fill: none"/>
    </g>
    <path d="M 939.098076 185.610732 
L 933.161252 185.610732 
L 933.161252 179.325321 
L 925.530953 179.325321 
L 925.530953 178.013774 
L 946.721936 178.013774 
L 946.721936 179.325321 
L 939.098076 179.325321 
L 939.098076 185.610732 
z
" style="fill: #ff7f00"/>
   </g>
   <g id="text_103">
    <g id="patch_97">
     <path d="M 923.721574 190.438504 
L 967.067824 190.438504 
L 967.067824 120.756004 
L 923.721574 120.756004 
L 923.721574 190.438504 
z
" style="fill: none"/>
    </g>
    <path d="M 932.41432 168.897994 
L 932.41432 174.027197 
L 934.024088 174.027197 
Q 937.526943 174.027197 939.014368 173.442317 
Q 940.501793 172.855794 940.501793 171.454381 
Q 940.501793 170.062826 939.014368 169.481231 
Q 937.526943 168.897994 934.024088 168.897994 
L 932.41432 168.897994 
z
M 926.477497 167.475223 
L 932.839299 167.475223 
Q 940.199157 167.475223 943.43801 168.408403 
Q 946.683302 169.33994 946.683302 171.454381 
Q 946.683302 173.575394 943.43801 174.513502 
Q 940.199157 175.449968 932.839299 175.449968 
L 926.477497 175.449968 
L 926.477497 167.475223 
z
" style="fill: #e41a1c"/>
   </g>
   <g id="text_104">
    <g id="patch_98">
     <path d="M 923.721574 179.795615 
L 967.067824 179.795615 
L 967.067824 110.113115 
L 923.721574 110.113115 
L 923.721574 179.795615 
z
" style="fill: none"/>
    </g>
    <path d="M 945.472756 164.325423 
Q 944.0626 164.561129 942.510784 164.677939 
Q 940.965407 164.794749 939.259053 164.794749 
Q 933.18057 164.794749 929.980351 163.499409 
Q 926.780133 162.201983 926.780133 159.751058 
Q 926.780133 157.293875 929.980351 155.996449 
Q 933.18057 154.699023 939.259053 154.699023 
Q 940.965407 154.699023 942.53654 154.815834 
Q 944.107673 154.932644 945.472756 155.16835 
L 945.472756 157.306391 
Q 943.946696 156.84958 942.504345 156.638905 
Q 941.068432 156.426143 939.535933 156.426143 
Q 936.277763 156.426143 934.616482 157.264673 
Q 932.955202 158.101116 932.955202 159.751058 
Q 932.955202 161.392656 934.616482 162.231185 
Q 936.277763 163.067629 939.535933 163.067629 
Q 941.068432 163.067629 942.504345 162.856953 
Q 943.946696 162.644192 945.472756 162.187382 
L 945.472756 164.325423 
z
" style="fill: #ff7f00"/>
   </g>
   <g id="text_105">
    <g id="patch_99">
     <path d="M 923.721574 166.931476 
L 967.067824 166.931476 
L 967.067824 97.248976 
L 923.721574 97.248976 
L 923.721574 166.931476 
z
" style="fill: none"/>
    </g>
    <path d="M 945.814027 151.938953 
L 927.102086 151.938953 
L 927.102086 141.814025 
L 945.814027 141.814025 
L 945.814027 143.580777 
L 933.03891 143.580777 
L 933.03891 145.75845 
L 944.609921 145.75845 
L 944.609921 147.525202 
L 933.03891 147.525202 
L 933.03891 150.172201 
L 945.814027 150.172201 
L 945.814027 151.938953 
z
" style="fill: #e41a1c"/>
   </g>
   <g id="text_106">
    <g id="patch_100">
     <path d="M 923.721574 154.067336 
L 967.067824 154.067336 
L 967.067824 84.384836 
L 923.721574 84.384836 
L 923.721574 154.067336 
z
" style="fill: none"/>
    </g>
    <path d="M 926.477497 128.949886 
L 932.41432 128.949886 
L 932.41432 132.808789 
L 939.838569 132.808789 
L 939.838569 128.949886 
L 945.775393 128.949886 
L 945.775393 139.074813 
L 939.838569 139.074813 
L 939.838569 134.569283 
L 932.41432 134.569283 
L 932.41432 139.074813 
L 926.477497 139.074813 
L 926.477497 128.949886 
z
" style="fill: #3c58e5"/>
   </g>
   <g id="text_107">
    <g id="patch_101">
     <path d="M 923.721574 141.203197 
L 967.067824 141.203197 
L 967.067824 71.520697 
L 923.721574 71.520697 
L 923.721574 141.203197 
z
" style="fill: none"/>
    </g>
    <path d="M 927.185794 117.852498 
L 927.185794 116.085746 
L 945.073534 116.085746 
L 945.073534 117.852498 
L 939.098076 117.852498 
L 939.098076 124.443922 
L 945.073534 124.443922 
L 945.073534 126.210674 
L 927.185794 126.210674 
L 927.185794 124.443922 
L 933.161252 124.443922 
L 933.161252 117.852498 
L 927.185794 117.852498 
z
" style="fill: #12ab0d"/>
   </g>
   <g id="text_108">
    <g id="patch_102">
     <path d="M 923.721574 128.339058 
L 967.067824 128.339058 
L 967.067824 58.656558 
L 923.721574 58.656558 
L 923.721574 128.339058 
z
" style="fill: none"/>
    </g>
    <path d="M 926.078274 103.221607 
L 932.015098 103.221607 
L 932.015098 107.224437 
L 941.306677 103.221607 
L 948.029068 103.221607 
L 938.550755 107.211921 
L 948.370338 113.346535 
L 941.77029 113.346535 
L 934.648678 108.788857 
L 932.015098 109.917325 
L 932.015098 113.346535 
L 926.078274 113.346535 
L 926.078274 103.221607 
z
" style="fill: #3c58e5"/>
   </g>
   <g id="text_109">
    <g id="patch_103">
     <path d="M 923.721574 115.474918 
L 967.067824 115.474918 
L 967.067824 45.792418 
L 923.721574 45.792418 
L 923.721574 115.474918 
z
" style="fill: none"/>
    </g>
    <path d="M 928.248241 100.482395 
L 928.248241 90.357468 
L 934.185065 90.357468 
L 934.185065 98.715643 
L 946.882913 98.715643 
L 946.882913 100.482395 
L 928.248241 100.482395 
z
" style="fill: #12ab0d"/>
   </g>
   <g id="text_110">
    <g id="patch_104">
     <path d="M 923.721574 102.610779 
L 967.067824 102.610779 
L 967.067824 32.928279 
L 923.721574 32.928279 
L 923.721574 102.610779 
z
" style="fill: none"/>
    </g>
    <path d="M 932.916568 79.176644 
L 932.916568 82.149043 
L 935.350537 82.149043 
Q 938.267436 82.149043 939.445786 81.817386 
Q 940.624136 81.483643 940.624136 80.661801 
Q 940.624136 79.839958 939.445786 79.508301 
Q 938.267436 79.176644 935.350537 79.176644 
L 932.916568 79.176644 
z
M 926.979744 77.493328 
L 935.131608 77.493328 
Q 941.351751 77.493328 944.075478 78.240078 
Q 946.799205 78.986828 946.799205 80.661801 
Q 946.799205 82.336773 944.075478 83.083523 
Q 941.351751 83.830273 935.131608 83.830273 
L 932.916568 83.830273 
L 932.916568 87.618256 
L 926.979744 87.618256 
L 926.979744 77.493328 
z
" style="fill: #12ab0d"/>
   </g>
   <g id="text_111">
    <g id="patch_105">
     <path d="M 923.721574 89.746639 
L 967.067824 89.746639 
L 967.067824 20.064139 
L 923.721574 20.064139 
L 923.721574 89.746639 
z
" style="fill: none"/>
    </g>
    <path d="M 936.92167 73.358654 
Q 936.638351 73.377427 936.445179 73.383684 
Q 936.258446 73.389942 936.078152 73.389942 
Q 930.907577 73.389942 928.241802 72.286504 
Q 925.576027 71.180981 925.576027 69.024167 
Q 925.576027 66.859009 928.241802 65.751399 
Q 930.907577 64.64379 936.116786 64.64379 
Q 941.351751 64.64379 944.017526 65.751399 
Q 946.683302 66.859009 946.683302 69.024167 
Q 946.683302 70.509323 945.414805 71.510552 
Q 944.146308 72.511781 941.731656 72.941475 
L 945.472756 73.971906 
L 941.409702 74.818779 
L 936.92167 73.358654 
z
M 936.116786 66.141462 
Q 933.843794 66.141462 932.794225 66.823549 
Q 931.751096 67.505636 931.751096 69.024167 
Q 931.751096 70.536439 932.794225 71.218527 
Q 933.843794 71.898528 936.116786 71.898528 
Q 938.409095 71.898528 939.452225 71.218527 
Q 940.501793 70.536439 940.501793 69.024167 
Q 940.501793 67.505636 939.452225 66.823549 
Q 938.409095 66.141462 936.116786 66.141462 
z
" style="fill: #972aa8"/>
   </g>
   <g id="text_112">
    <g id="patch_106">
     <path d="M 923.721574 76.8825 
L 967.067824 76.8825 
L 967.067824 7.2 
L 923.721574 7.2 
L 923.721574 76.8825 
z
" style="fill: none"/>
    </g>
    <path d="M 939.960911 57.111195 
Q 940.843064 57.1696 941.499849 57.39279 
Q 942.156635 57.613895 943.096739 58.245921 
L 948.531315 61.889977 
L 942.014975 61.889977 
L 938.389778 59.334757 
Q 938.228801 59.222119 937.971238 59.034389 
Q 936.380788 57.887147 934.223699 57.887147 
L 932.337051 57.887147 
L 932.337051 61.889977 
L 926.400228 61.889977 
L 926.400228 51.765049 
L 934.970631 51.765049 
Q 940.765795 51.765049 943.289911 52.457566 
Q 945.814027 53.147997 945.814027 54.712417 
Q 945.814027 55.755364 944.307284 56.372788 
Q 942.800542 56.988127 939.960911 57.111195 
z
M 932.337051 53.448365 
L 932.337051 56.205917 
L 935.131608 56.205917 
Q 937.565577 56.205917 938.621585 55.886775 
Q 939.677592 55.565547 939.677592 54.822969 
Q 939.677592 54.086649 938.628024 53.767507 
Q 937.584894 53.448365 935.131608 53.448365 
L 932.337051 53.448365 
z
" style="fill: #3c58e5"/>
   </g>
   <g id="text_113">
    <text style="font: 17px 'DejaVu Sans', 'Bitstream Vera Sans', 'Computer Modern Sans Serif', 'Lucida Grande', 'Verdana', 'Geneva', 'Lucid', 'Arial', 'Helvetica', 'Avant Garde', sans-serif; text-anchor: middle" x="660.801422" y="37.267358" transform="rotate(-0 660.801422 37.267358)">JN.1_RBD vs SA55</text>
   </g>
  </g>
  <g id="text_114">
   <text style="font: 17px 'DejaVu Sans', 'Bitstream Vera Sans', 'Computer Modern Sans Serif', 'Lucida Grande', 'Verdana', 'Geneva', 'Lucid', 'Arial', 'Helvetica', 'Avant Garde', sans-serif; text-anchor: middle" x="177.021181" y="271.688295" transform="rotate(-0 177.021181 271.688295)">site</text>
  </g>
  <g id="text_115">
   <text style="font: 17px 'DejaVu Sans', 'Bitstream Vera Sans', 'Computer Modern Sans Serif', 'Lucida Grande', 'Verdana', 'Geneva', 'Lucid', 'Arial', 'Helvetica', 'Avant Garde', sans-serif; text-anchor: middle" x="660.801422" y="281.048295" transform="rotate(-0 660.801422 281.048295)">site</text>
  </g>
  <g id="text_116">
   <text style="font: 17px 'DejaVu Sans', 'Bitstream Vera Sans', 'Computer Modern Sans Serif', 'Lucida Grande', 'Verdana', 'Geneva', 'Lucid', 'Arial', 'Helvetica', 'Avant Garde', sans-serif" transform="translate(20.117344 183.036186) rotate(-90)">site_escape</text>
  </g>
  <g id="text_117">
   <text style="font: 17px 'DejaVu Sans', 'Bitstream Vera Sans', 'Computer Modern Sans Serif', 'Lucida Grande', 'Verdana', 'Geneva', 'Lucid', 'Arial', 'Helvetica', 'Avant Garde', sans-serif" transform="translate(337.337196 184.683061) rotate(-90)">mut_escape</text>
  </g>
 </g>
 <defs>
  <clipPath id="p66632faf42">
   <rect x="51.742813" y="43.267358" width="250.556737" height="180"/>
  </clipPath>
  <clipPath id="pd5d97e0026">
   <rect x="369.199071" y="43.267358" width="583.204701" height="180"/>
  </clipPath>
 </defs>
</svg>
